<?xml version="1.0" encoding="UTF-8" standalone="no"?>
<!-- Created with Inkscape (http://www.inkscape.org/) -->

<svg
   xmlns:dc="http://purl.org/dc/elements/1.1/"
   xmlns:cc="http://creativecommons.org/ns#"
   xmlns:rdf="http://www.w3.org/1999/02/22-rdf-syntax-ns#"
   xmlns:svg="http://www.w3.org/2000/svg"
   xmlns="http://www.w3.org/2000/svg"
   xmlns:sodipodi="http://sodipodi.sourceforge.net/DTD/sodipodi-0.dtd"
   xmlns:inkscape="http://www.inkscape.org/namespaces/inkscape"
   width="180.70576mm"
   height="70.071709mm"
   viewBox="0 0 180.70576 70.071708"
   version="1.1"
   id="svg8"
   inkscape:version="0.92.3 (2405546, 2018-03-11)"
   sodipodi:docname="drawing - Copy.svg">
  <defs
     id="defs2" />
  <sodipodi:namedview
     id="base"
     pagecolor="#ffffff"
     bordercolor="#666666"
     borderopacity="1.0"
     inkscape:pageopacity="0.0"
     inkscape:pageshadow="2"
     inkscape:zoom="2"
     inkscape:cx="90.26243"
     inkscape:cy="-120.76585"
     inkscape:document-units="mm"
     inkscape:current-layer="layer1"
     showgrid="false"
     inkscape:window-width="3840"
     inkscape:window-height="2068"
     inkscape:window-x="-12"
     inkscape:window-y="-12"
     inkscape:window-maximized="1"
     fit-margin-top="0.3"
     fit-margin-left="0.3"
     fit-margin-right="0.3"
     fit-margin-bottom="0.3" />
  <metadata
     id="metadata5">
    <rdf:RDF>
      <cc:Work
         rdf:about="">
        <dc:format>image/svg+xml</dc:format>
        <dc:type
           rdf:resource="http://purl.org/dc/dcmitype/StillImage" />
        <dc:title />
      </cc:Work>
    </rdf:RDF>
  </metadata>
  <g
     inkscape:label="Layer 1"
     inkscape:groupmode="layer"
     id="layer1"
     transform="translate(-0.56677821,-0.763543)">
    <g
       id="g4909"
       transform="translate(-14.155208,-21.43125)"
       style="fill:#ff2a2a">
      <path
         sodipodi:nodetypes="sssss"
         inkscape:connector-curvature="0"
         id="path4788"
         d="m 30.959217,62.590902 c -1.576239,4.705115 42.40843,1.516355 30.185118,11.613829 C 48.921023,84.302204 24.532965,83.383725 18.083147,68.900351 7.985674,46.225996 25.669955,27.709092 30.79586,24.780829 c 10.392372,-5.936823 12.195938,1.8925 0.163357,37.810073 z"
         style="fill:#ff2a2a;fill-opacity:1;stroke-width:0.26458332" />
      <path
         sodipodi:nodetypes="sssss"
         inkscape:connector-curvature="0"
         id="path4788-8"
         d="m 79.339222,52.392709 c 0,15.854598 8.97544,27.516665 -6.879159,27.516665 -15.8546,0 -3.96875,-15.101649 -3.96875,-30.95625 10e-7,-15.854598 -11.88585,-26.458331 3.96875,-26.458331 15.854599,10e-7 6.879159,14.043316 6.879159,29.897916 z"
         style="fill:#ff2a2a;fill-opacity:1;stroke-width:0.26458332" />
      <path
         sodipodi:nodetypes="sssssss"
         inkscape:connector-curvature="0"
         id="path4788-8-3"
         d="m 124.69833,24.993767 c 6.22619,3.044851 -5.30823,18.448763 -10.00712,29.467929 -6.16744,14.462997 -0.72742,25.301865 -9.70433,25.964951 C 70.325215,82.986957 95.743091,61.148814 92.425194,53.503845 87.523863,42.21039 79.384093,24.63864 85.936879,23.309727 c 9.338889,-1.89394 2.533942,18.103399 18.388541,18.103399 15.8546,1e-6 1.19062,-25.800256 20.37291,-16.419359 z"
         style="fill:#ff2a2a;fill-opacity:1;stroke-width:0.27250934" />
      <path
         sodipodi:nodetypes="sssssss"
         inkscape:connector-curvature="0"
         id="path4788-8-3-9"
         d="m 113.22502,79.003395 c -6.17726,-3.142932 5.59933,-18.362506 10.47189,-29.305982 6.3954,-14.363654 1.12747,-25.287194 10.11374,-25.808235 34.69782,-2.01183 8.93777,19.421609 12.13434,27.118093 4.72212,11.369555 12.58298,29.067834 6.01,30.292954 -9.36767,1.74601 -2.24732,-18.14121 -18.09994,-18.391944 -15.85262,-0.250735 -1.59849,25.778204 -20.63003,16.095114 z"
         style="fill:#ff2a2a;fill-opacity:1;stroke-width:0.27250934" />
      <path
         sodipodi:nodetypes="sssss"
         inkscape:connector-curvature="0"
         id="path4788-5"
         d="m 180.77099,46.066333 c 3.07028,-3.89822 -39.41424,-15.725517 -24.50223,-21.110723 14.912,-5.385209 37.56251,3.701892 38.75165,19.511823 1.86166,24.75115 -21.03017,36.2217 -26.84323,37.25032 -11.7855,2.08546 -10.84383,-5.89354 12.59381,-35.65142 z"
         style="fill:#ff2a2a;fill-opacity:1;stroke-width:0.26458332" />
    </g>
    <g
       id="g5093"
       transform="translate(-11.377083,-39.290625)"
       style="fill:#ff2a2a;fill-opacity:1">
      <path
         d="m 28.405156,103.6919 v 1.66914 q 0,0.3359 0.144597,0.59428 l 0.741519,1.32292 q 0.05561,0.0879 0.05561,0.24804 0,0.20671 -0.0964,0.32556 -0.0964,0.11886 -0.226164,0.11886 -0.137181,0 -0.211332,-0.13436 l -0.748935,-1.33325 q -0.281778,-0.48576 -0.281778,-1.0542 v -1.85518 q 0,-0.54777 0.281778,-1.04903 l 0.748935,-1.33325 q 0.07786,-0.13436 0.207625,-0.13436 0.129766,0 0.226163,0.11885 0.100105,0.11886 0.100105,0.33073 0,0.15503 -0.05561,0.24805 l -0.741519,1.31258 q -0.144597,0.26355 -0.144597,0.60462 z"
         style="font-style:normal;font-variant:normal;font-weight:normal;font-stretch:normal;font-size:medium;line-height:1.25;font-family:'OCR A Extended';-inkscape-font-specification:'OCR A Extended';letter-spacing:0px;word-spacing:0px;fill:#ff2a2a;fill-opacity:1;stroke:none;stroke-width:0.22411066"
         id="path4972"
         inkscape:connector-curvature="0" />
      <path
         d="m 31.423141,107.9552 v -6.43371 q 0,-0.1757 0.09269,-0.3049 0.09269,-0.12919 0.218748,-0.12919 0.126058,0 0.218748,0.12919 0.09269,0.1292 0.09269,0.3049 v 5.56554 h 2.202313 q 0.129766,0 0.222456,0.12919 0.0964,0.12403 0.0964,0.30489 0,0.18087 -0.0964,0.31006 -0.09269,0.12403 -0.222456,0.12403 z"
         style="font-style:normal;font-variant:normal;font-weight:normal;font-stretch:normal;font-size:medium;line-height:1.25;font-family:'OCR A Extended';-inkscape-font-specification:'OCR A Extended';letter-spacing:0px;word-spacing:0px;fill:#ff2a2a;fill-opacity:1;stroke:none;stroke-width:0.22411066"
         id="path4974"
         inkscape:connector-curvature="0" />
      <path
         d="m 37.251485,100.705 h 0.326268 q 0.129766,0 0.218748,0.12919 0.09269,0.12402 0.09269,0.30489 v 0.37207 q 0,0.18087 -0.09269,0.31523 -0.08898,0.12919 -0.218748,0.12919 h -0.333684 q -0.133473,0 -0.226163,-0.13436 -0.08898,-0.13436 -0.08528,-0.29972 l 0.0074,-0.38241 q 0,-0.18087 0.08898,-0.30489 0.09269,-0.12919 0.222456,-0.12919 z m 1.267998,7.23986 h -1.89829 q -0.129766,0 -0.222456,-0.12402 -0.08898,-0.12919 -0.08898,-0.31006 0,-0.1757 0.08898,-0.30489 0.09269,-0.12919 0.222456,-0.12919 H 37.2589 v -3.24011 h -0.630291 q -0.129767,0 -0.222457,-0.12919 -0.08898,-0.12919 -0.08898,-0.30489 0,-0.18087 0.08898,-0.31006 0.09269,-0.13436 0.222457,-0.13436 h 0.949144 q 0.129766,0 0.218748,0.13436 0.09269,0.12919 0.09269,0.31006 v 3.67419 h 0.622877 q 0.129766,0 0.222456,0.12919 0.0964,0.12402 0.0964,0.30489 0,0.18087 -0.09269,0.31006 -0.09269,0.12402 -0.218748,0.12402 z"
         style="font-style:normal;font-variant:normal;font-weight:normal;font-stretch:normal;font-size:medium;line-height:1.25;font-family:'OCR A Extended';-inkscape-font-specification:'OCR A Extended';letter-spacing:0px;word-spacing:0px;fill:#ff2a2a;fill-opacity:1;stroke:none;stroke-width:0.22411066"
         id="path4976"
         inkscape:connector-curvature="0" />
      <path
         d="m 41.459608,102.96843 h 1.427425 q 0.333684,0 0.589508,0.27905 0.255825,0.27388 0.255825,0.53743 0,0.18604 -0.0964,0.30489 -0.09269,0.11886 -0.207626,0.11886 -0.148304,0 -0.270654,-0.18604 -0.122351,-0.18603 -0.255824,-0.18603 h -1.408888 q -0.207625,0 -0.207625,0.24288 0,0.17053 0.137181,0.25838 l 1.657297,1.02319 q 0.252116,0.15503 0.411543,0.50126 0.163134,0.34107 0.163134,0.75964 0,0.55811 -0.285485,0.94568 -0.281777,0.38758 -0.641414,0.38758 h -1.260584 q -0.326268,0 -0.608046,-0.27389 -0.27807,-0.27388 -0.27807,-0.53227 0,-0.17053 0.08898,-0.29972 0.09269,-0.13436 0.237286,-0.13436 0.118643,0 0.252117,0.18604 0.137181,0.18603 0.393005,0.18603 h 1.160478 q 0.137181,0 0.229871,-0.14469 0.09269,-0.14986 0.09269,-0.34107 0,-0.29455 -0.207625,-0.42374 L 41.15558,105.1285 q -0.240994,-0.14987 -0.370759,-0.43409 -0.129767,-0.28422 -0.129767,-0.57877 0,-0.46509 0.229872,-0.80615 0.233578,-0.34106 0.574677,-0.34106 z"
         style="font-style:normal;font-variant:normal;font-weight:normal;font-stretch:normal;font-size:medium;line-height:1.25;font-family:'OCR A Extended';-inkscape-font-specification:'OCR A Extended';letter-spacing:0px;word-spacing:0px;fill:#ff2a2a;fill-opacity:1;stroke:none;stroke-width:0.22411066"
         id="path4978"
         inkscape:connector-curvature="0" />
      <path
         d="m 45.801205,107.4591 v 1.92237 q 0,0.18603 -0.09269,0.31522 -0.08898,0.12919 -0.218748,0.12919 -0.129766,0 -0.226163,-0.12919 -0.09269,-0.12919 -0.09269,-0.31522 v -6.19084 q 0,-0.1757 0.09269,-0.30489 0.09269,-0.12919 0.226163,-0.12919 0.126059,0 0.218748,0.12919 0.09269,0.12919 0.09269,0.30489 v 0.27906 q 0.452327,-0.7028 0.893531,-0.7028 h 0.144597 q 0.329976,0 0.608045,0.34106 l 0.519064,0.62529 q 0.3411,0.41341 0.3411,1.04902 v 1.35393 q 0,0.64078 -0.367053,1.08003 l -0.507941,0.60979 q -0.252116,0.32039 -0.637707,0.32039 H 46.65766 q -0.363345,0 -0.615461,-0.3514 z m 0.878701,-0.1912 h 0.159427 q 0.114935,0 0.244701,-0.1602 l 0.485696,-0.59428 q 0.12235,-0.13435 0.12235,-0.3669 v -1.40043 q 0,-0.20671 -0.137181,-0.3669 l -0.522772,-0.62528 q -0.08898,-0.10852 -0.192794,-0.10852 H 46.65766 q -0.103813,0 -0.270655,0.23771 l -0.463449,0.64078 q -0.122351,0.17053 -0.122351,0.38241 v 1.11104 q 0,0.20154 0.137182,0.39274 l 0.448618,0.62529 q 0.166842,0.23254 0.292901,0.23254 z"
         style="font-style:normal;font-variant:normal;font-weight:normal;font-stretch:normal;font-size:medium;line-height:1.25;font-family:'OCR A Extended';-inkscape-font-specification:'OCR A Extended';letter-spacing:0px;word-spacing:0px;fill:#ff2a2a;fill-opacity:1;stroke:none;stroke-width:0.22411066"
         id="path4980"
         inkscape:connector-curvature="0" />
      <path
         d="m 55.892637,104.23967 -1.679541,5.29166 q -0.08528,0.28422 -0.296608,0.28422 h -0.863871 q -0.129765,0 -0.222455,-0.12403 -0.08898,-0.12402 -0.08898,-0.31005 0,-0.18087 0.08898,-0.30489 0.09269,-0.12403 0.222455,-0.12403 h 0.667368 l 0.426374,-1.37976 h -0.152011 q -0.211334,0 -0.304024,-0.30489 l -0.934314,-3.02823 v -0.83716 q 0,-0.18087 0.08898,-0.30489 0.08898,-0.12919 0.215041,-0.12919 0.129765,0 0.222455,0.12919 0.0964,0.12402 0.0964,0.30489 v 0.64595 l 0.819379,2.64583 h 0.218748 l 0.845333,-2.63549 v -0.66663 q 0,-0.17053 0.09269,-0.29972 0.0964,-0.13436 0.226163,-0.13436 0.126059,0 0.218748,0.12919 0.09269,0.12919 0.09269,0.30489 z"
         style="font-style:normal;font-variant:normal;font-weight:normal;font-stretch:normal;font-size:medium;line-height:1.25;font-family:'OCR A Extended';-inkscape-font-specification:'OCR A Extended';letter-spacing:0px;word-spacing:0px;fill:#ff2a2a;fill-opacity:1;stroke:none;stroke-width:0.22411066"
         id="path4982"
         inkscape:connector-curvature="0" />
      <path
         d="m 60.467813,104.6014 v 1.04903 q 0,0.1757 -0.09269,0.30489 -0.09269,0.12919 -0.218748,0.12919 h -2.202313 v 0.25321 q 0,0.22221 0.137181,0.37724 l 0.181672,0.21188 q 0.148304,0.16019 0.281778,0.16019 h 1.601682 q 0.126058,0 0.218748,0.12919 0.09269,0.12403 0.09269,0.30489 0,0.1757 -0.0964,0.3049 -0.09269,0.12919 -0.215041,0.12919 h -1.642463 q -0.163135,0 -0.344807,-0.093 -0.177964,-0.0982 -0.263239,-0.20154 l -0.27807,-0.34106 q -0.129765,-0.1447 -0.218748,-0.40308 -0.08528,-0.25838 -0.08528,-0.47542 v -1.98955 q 0,-0.17052 0.09269,-0.45991 0.0964,-0.28939 0.240994,-0.44959 l 0.259532,-0.28422 q 0.255824,-0.28938 0.567263,-0.28938 h 0.874992 q 0.329977,0 0.622876,0.3824 l 0.233579,0.31006 q 0.252117,0.31523 0.252117,0.94051 z m -2.506336,-0.0672 v 0.67179 h 1.890875 v -0.60461 q 0,-0.24288 -0.107521,-0.37207 l -0.181672,-0.22219 q -0.140889,-0.1602 -0.252116,-0.1602 h -0.782304 q -0.144596,0 -0.263239,0.13953 l -0.181672,0.21187 q -0.122351,0.1292 -0.122351,0.3359 z"
         style="font-style:normal;font-variant:normal;font-weight:normal;font-stretch:normal;font-size:medium;line-height:1.25;font-family:'OCR A Extended';-inkscape-font-specification:'OCR A Extended';letter-spacing:0px;word-spacing:0px;fill:#ff2a2a;fill-opacity:1;stroke:none;stroke-width:0.22411066"
         id="path4984"
         inkscape:connector-curvature="0" />
      <path
         d="m 64.101259,107.9552 h -0.622877 q -0.38559,0 -0.663659,-0.38241 -0.27807,-0.3824 -0.27807,-0.91984 v -2.81636 h -0.318854 q -0.129766,0 -0.222455,-0.12402 -0.08898,-0.12403 -0.08898,-0.31006 0,-0.18087 0.08898,-0.30489 0.09269,-0.12919 0.222455,-0.12919 h 0.326269 v -1.06454 q 0,-0.18087 0.08898,-0.30489 0.09269,-0.12919 0.222456,-0.12919 0.122351,0 0.215041,0.12919 0.0964,0.12919 0.0964,0.30489 v 1.06454 h 1.253168 q 0.126058,0 0.218748,0.12919 0.09269,0.12919 0.09269,0.30489 0,0.18087 -0.09269,0.31006 -0.09269,0.12402 -0.218748,0.12402 h -1.260584 v 2.81636 q 0,0.1757 0.09269,0.30489 0.0964,0.12919 0.226163,0.12919 h 0.608047 q 0.248409,0 0.329976,-0.37207 0.08157,-0.37724 0.315145,-0.37724 0.137182,0 0.222456,0.1292 0.08898,0.12402 0.08898,0.31522 0,0.39274 -0.266946,0.78548 -0.26324,0.38758 -0.674783,0.38758 z"
         style="font-style:normal;font-variant:normal;font-weight:normal;font-stretch:normal;font-size:medium;line-height:1.25;font-family:'OCR A Extended';-inkscape-font-specification:'OCR A Extended';letter-spacing:0px;word-spacing:0px;fill:#ff2a2a;fill-opacity:1;stroke:none;stroke-width:0.22411066"
         id="path4986"
         inkscape:connector-curvature="0" />
      <path
         d="m 69.889189,104.82361 h 1.219801 q 0.100108,0 0.289195,0.062 l -0.0074,-0.61495 q 0,-0.18087 -0.09269,-0.30489 -0.08898,-0.12919 -0.218747,-0.12919 h -1.182754 q -0.126059,0 -0.218748,-0.12919 -0.09269,-0.12919 -0.09269,-0.30489 0,-0.18087 0.08898,-0.30489 0.09269,-0.12919 0.222456,-0.12919 h 1.182725 q 0.385587,0 0.656243,0.37723 0.274365,0.37724 0.285486,0.92501 l 0.07786,3.25044 q 0,0.18087 -0.09269,0.31006 -0.09269,0.12403 -0.218748,0.12403 -0.133477,0 -0.226166,-0.12403 -0.09269,-0.12919 -0.09269,-0.31006 l -0.526475,0.43409 h -1.052962 q -0.393005,0 -0.667367,-0.38241 -0.274362,-0.3824 -0.274362,-0.93017 v -0.50643 q 0,-0.54261 0.274362,-0.92501 0.27807,-0.38757 0.667367,-0.38757 z m 1.557188,1.68981 -0.01851,-0.3669 q -0.0036,-0.18603 -0.09269,-0.31006 -0.08899,-0.12402 -0.218755,-0.12402 h -1.227211 q -0.129766,0 -0.222456,0.12919 -0.08898,0.12402 -0.08898,0.30489 v 0.48576 q 0,0.1757 0.09269,0.30489 0.09269,0.12919 0.218748,0.12919 h 0.878704 z"
         style="font-style:normal;font-variant:normal;font-weight:normal;font-stretch:normal;font-size:medium;line-height:1.25;font-family:'OCR A Extended';-inkscape-font-specification:'OCR A Extended';letter-spacing:0px;word-spacing:0px;fill:#ff2a2a;fill-opacity:1;stroke:none;stroke-width:0.22411066"
         id="path4988"
         inkscape:connector-curvature="0" />
      <path
         d="m 75.016801,103.97612 -0.849047,0.76997 v 2.77502 q 0,0.1757 -0.09269,0.3049 -0.09269,0.12919 -0.218748,0.12919 -0.126058,0 -0.218747,-0.12919 -0.09269,-0.1292 -0.09269,-0.3049 v -4.1186 q 0,-0.18087 0.08898,-0.31006 0.0927,-0.13436 0.222457,-0.13436 0.126059,0 0.218748,0.13436 0.09269,0.12919 0.09269,0.31006 v 0.28939 l 0.567263,-0.4806 q 0.285486,-0.25321 0.645122,-0.25321 h 0.289195 q 0.370757,0 0.641413,0.3669 0.270656,0.36691 0.285486,0.90434 l 0.08528,3.29178 q 0.0036,0.1757 -0.08899,0.3049 -0.09269,0.12919 -0.222457,0.12919 -0.122349,0 -0.215038,-0.11369 -0.09269,-0.11886 -0.0964,-0.3204 l -0.09269,-3.2401 q -0.01112,-0.45476 -0.341097,-0.45476 h -0.304025 q -0.140888,0 -0.304018,0.14987 z"
         style="font-style:normal;font-variant:normal;font-weight:normal;font-stretch:normal;font-size:medium;line-height:1.25;font-family:'OCR A Extended';-inkscape-font-specification:'OCR A Extended';letter-spacing:0px;word-spacing:0px;fill:#ff2a2a;fill-opacity:1;stroke:none;stroke-width:0.22411066"
         id="path4990"
         inkscape:connector-curvature="0" />
      <path
         d="m 81.264097,104.53422 v 1.83451 q 0,0.58394 -0.396707,1.08004 -0.393006,0.49609 -0.811969,0.49609 h -0.730392 q -0.426375,0 -0.815671,-0.50126 -0.389303,-0.50643 -0.389303,-1.07487 v -1.83451 q 0,-0.56844 0.378175,-1.0697 0.381885,-0.50643 0.826799,-0.50643 h 0.730392 q 0.418963,-0.0103 0.811969,0.48576 0.396707,0.49609 0.396707,1.09037 z m -2.51375,0.0362 v 1.757 q 0,0.23771 0.122349,0.37724 l 0.233585,0.27905 q 0.07786,0.093 0.218748,0.093 h 0.722981 q 0.159427,0 0.289188,-0.1602 l 0.189088,-0.23254 q 0.114937,-0.12403 0.114937,-0.34624 v -1.75699 q 0,-0.25838 -0.114937,-0.38241 l -0.218748,-0.24287 q -0.111228,-0.1292 -0.259528,-0.1292 h -0.645122 q -0.211336,0 -0.326274,0.13953 l -0.211329,0.25322 q -0.114938,0.13435 -0.114938,0.35139 z"
         style="font-style:normal;font-variant:normal;font-weight:normal;font-stretch:normal;font-size:medium;line-height:1.25;font-family:'OCR A Extended';-inkscape-font-specification:'OCR A Extended';letter-spacing:0px;word-spacing:0px;fill:#ff2a2a;fill-opacity:1;stroke:none;stroke-width:0.22411066"
         id="path4992"
         inkscape:connector-curvature="0" />
      <path
         d="m 84.897542,107.9552 h -0.622873 q -0.385587,0 -0.663661,-0.38241 -0.278068,-0.3824 -0.278068,-0.91984 v -2.81636 h -0.318855 q -0.129768,0 -0.222457,-0.12402 -0.08898,-0.12403 -0.08898,-0.31006 0,-0.18087 0.08898,-0.30489 0.09269,-0.12919 0.222457,-0.12919 h 0.326266 v -1.06454 q 0,-0.18087 0.08899,-0.30489 0.09269,-0.12919 0.222456,-0.12919 0.12235,0 0.215039,0.12919 0.0964,0.12919 0.0964,0.30489 v 1.06454 h 1.253166 q 0.126058,0 0.218747,0.12919 0.09269,0.12919 0.09269,0.30489 0,0.18087 -0.09269,0.31006 -0.09269,0.12402 -0.218747,0.12402 h -1.260584 v 2.81636 q 0,0.1757 0.09269,0.30489 0.0964,0.12919 0.226166,0.12919 h 0.608043 q 0.248415,0 0.329977,-0.37207 0.08157,-0.37724 0.315146,-0.37724 0.137186,0 0.222456,0.1292 0.08899,0.12402 0.08899,0.31522 0,0.39274 -0.266947,0.78548 -0.263245,0.38758 -0.67479,0.38758 z"
         style="font-style:normal;font-variant:normal;font-weight:normal;font-stretch:normal;font-size:medium;line-height:1.25;font-family:'OCR A Extended';-inkscape-font-specification:'OCR A Extended';letter-spacing:0px;word-spacing:0px;fill:#ff2a2a;fill-opacity:1;stroke:none;stroke-width:0.22411066"
         id="path4994"
         inkscape:connector-curvature="0" />
      <path
         d="m 87.285241,107.52111 v -5.99962 q 0,-0.1757 0.08898,-0.29973 0.09269,-0.12402 0.222457,-0.12402 0.129768,0 0.218747,0.12919 0.09269,0.12402 0.09269,0.30489 v 2.19108 l 0.500524,-0.45475 q 0.341104,-0.29972 0.608051,-0.29972 h 0.385586 q 0.381885,0 0.656243,0.3824 0.274365,0.37724 0.285486,0.91984 l 0.07786,3.25044 q 0.0036,0.18087 -0.08898,0.31006 -0.09269,0.12403 -0.222456,0.12403 -0.129768,0 -0.218748,-0.12919 -0.08898,-0.13436 -0.09269,-0.3049 l -0.07786,-3.26077 q -0.0036,-0.1757 -0.0964,-0.30489 -0.09269,-0.1292 -0.222457,-0.1292 h -0.348513 q -0.11864,0 -0.259528,0.1292 l -0.886118,0.80614 v 2.75952 q 0,0.18087 -0.09269,0.31006 -0.08898,0.12403 -0.218747,0.12403 -0.129768,0 -0.222457,-0.12403 -0.08898,-0.12919 -0.08898,-0.31006 z"
         style="font-style:normal;font-variant:normal;font-weight:normal;font-stretch:normal;font-size:medium;line-height:1.25;font-family:'OCR A Extended';-inkscape-font-specification:'OCR A Extended';letter-spacing:0px;word-spacing:0px;fill:#ff2a2a;fill-opacity:1;stroke:none;stroke-width:0.22411066"
         id="path4996"
         inkscape:connector-curvature="0" />
      <path
         d="m 95.011869,104.6014 v 1.04903 q 0,0.1757 -0.09269,0.30489 -0.09269,0.12919 -0.218748,0.12919 h -2.202313 v 0.25321 q 0,0.22221 0.137186,0.37724 l 0.181669,0.21188 q 0.148307,0.16019 0.281777,0.16019 h 1.601681 q 0.126058,0 0.218748,0.12919 0.09269,0.12403 0.09269,0.30489 0,0.1757 -0.09639,0.3049 -0.09269,0.12919 -0.215046,0.12919 h -1.642462 q -0.163136,0 -0.344806,-0.093 -0.177966,-0.0982 -0.263244,-0.20154 l -0.278068,-0.34106 q -0.129767,-0.1447 -0.218747,-0.40308 -0.08528,-0.25838 -0.08528,-0.47542 v -1.98955 q 0,-0.17052 0.09269,-0.45991 0.0964,-0.28939 0.240996,-0.44959 l 0.259536,-0.28422 q 0.255819,-0.28938 0.567263,-0.28938 h 0.87499 q 0.329976,0 0.622873,0.3824 l 0.233585,0.31006 q 0.25211,0.31523 0.25211,0.94051 z m -2.506331,-0.0672 v 0.67179 h 1.890876 v -0.60461 q 0,-0.24288 -0.107526,-0.37207 l -0.18167,-0.22221 q -0.140888,-0.16018 -0.252116,-0.16018 H 93.0728 q -0.144597,0 -0.263244,0.13953 l -0.181669,0.21187 q -0.122349,0.1292 -0.122349,0.3359 z"
         style="font-style:normal;font-variant:normal;font-weight:normal;font-stretch:normal;font-size:medium;line-height:1.25;font-family:'OCR A Extended';-inkscape-font-specification:'OCR A Extended';letter-spacing:0px;word-spacing:0px;fill:#ff2a2a;fill-opacity:1;stroke:none;stroke-width:0.22411066"
         id="path4998"
         inkscape:connector-curvature="0" />
      <path
         d="m 96.457841,107.52111 v -4.1186 q 0,-0.18087 0.089,-0.31006 0.0927,-0.13436 0.22245,-0.13436 0.129767,0 0.218747,0.12919 0.0927,0.12919 0.0927,0.31523 v 0.5426 l 0.507937,-0.60461 q 0.315147,-0.37207 0.615467,-0.37207 h 0.456027 q 0.385587,0 0.659947,0.3824 0.274357,0.38241 0.274357,0.91984 v 0.23254 q 0,0.18604 -0.0927,0.31523 -0.089,0.12919 -0.218747,0.12919 -0.12976,0 -0.22245,-0.12402 -0.089,-0.1292 -0.089,-0.31006 v -0.24288 q 0,-0.18087 -0.0927,-0.30489 -0.089,-0.12919 -0.21875,-0.12919 h -0.404127 q -0.12976,0 -0.28919,0.1912 l -0.886117,1.0697 v 2.42362 q 0,0.18087 -0.0927,0.31006 -0.0927,0.12403 -0.218747,0.12403 -0.12976,0 -0.22245,-0.12403 -0.089,-0.12919 -0.089,-0.31006 z"
         style="font-style:normal;font-variant:normal;font-weight:normal;font-stretch:normal;font-size:medium;line-height:1.25;font-family:'OCR A Extended';-inkscape-font-specification:'OCR A Extended';letter-spacing:0px;word-spacing:0px;fill:#ff2a2a;fill-opacity:1;stroke:none;stroke-width:0.22411066"
         id="path5000"
         inkscape:connector-curvature="0" />
      <path
         d="m 104.33951,101.0874 h 1.23092 q 0.241,0.005 0.46716,0.21704 0.22987,0.21188 0.33739,0.5116 l 0.61546,1.73633 q 0.17426,0.47025 0.17426,0.98185 0,0.47542 -0.18538,0.97668 l -0.61917,1.71566 q -0.11864,0.33073 -0.3411,0.53227 -0.22245,0.19637 -0.49682,0.19637 h -1.19014 q -0.12976,0 -0.22245,-0.12919 -0.089,-0.1292 -0.089,-0.3049 0,-0.18086 0.089,-0.31005 0.0927,-0.13436 0.22245,-0.13436 h 0.32627 v -5.1108 h -0.31885 q -0.12977,0 -0.22246,-0.12919 -0.089,-0.13436 -0.089,-0.31522 0,-0.1757 0.089,-0.3049 0.0927,-0.12919 0.22246,-0.12919 z m 0.94173,0.8785 v 5.12113 h 0.21875 q 0.20763,0 0.31144,-0.28422 l 0.61546,-1.70532 q 0.11493,-0.3359 0.11493,-0.56327 0,-0.28422 -0.0927,-0.53743 l -0.63771,-1.76734 q -0.10011,-0.26355 -0.32627,-0.26355 z"
         style="font-style:normal;font-variant:normal;font-weight:normal;font-stretch:normal;font-size:medium;line-height:1.25;font-family:'OCR A Extended';-inkscape-font-specification:'OCR A Extended';letter-spacing:0px;word-spacing:0px;fill:#ff2a2a;fill-opacity:1;stroke:none;stroke-width:0.22411066"
         id="path5002"
         inkscape:connector-curvature="0" />
      <path
         d="m 109.32252,101.0874 h 1.62022 q 0.29661,0 0.55985,0.3514 0.26694,0.34624 0.26694,0.84233 0,0.18603 -0.0964,0.31523 -0.0927,0.12919 -0.20762,0.12919 -0.15942,0 -0.21874,-0.0982 -0.0593,-0.10336 -0.11494,-0.37724 -0.052,-0.27389 -0.23729,-0.27389 h -1.53865 q -0.11123,0 -0.11123,0.0982 0,0.062 0.0482,0.1447 l 2.30983,4.1186 q 0.16684,0.29973 0.16684,0.64079 0,0.38758 -0.20392,0.68213 -0.20021,0.29456 -0.44862,0.29456 h -1.67954 q -0.33368,0 -0.58209,-0.3514 -0.2447,-0.35657 -0.2447,-0.78032 0,-0.48576 0.32626,-0.48576 0.12606,0 0.21505,0.1292 0.089,0.12402 0.089,0.29455 0,0.13953 0.0667,0.23255 0.0705,0.093 0.17426,0.093 h 1.54977 q 0.10011,0 0.10011,-0.10852 0,-0.0517 -0.0482,-0.13436 l -2.30613,-4.1186 q -0.16313,-0.29456 -0.16313,-0.64079 0,-0.40308 0.20762,-0.69763 0.20763,-0.29973 0.50053,-0.29973 z"
         style="font-style:normal;font-variant:normal;font-weight:normal;font-stretch:normal;font-size:medium;line-height:1.25;font-family:'OCR A Extended';-inkscape-font-specification:'OCR A Extended';letter-spacing:0px;word-spacing:0px;fill:#ff2a2a;fill-opacity:1;stroke:none;stroke-width:0.22411066"
         id="path5004"
         inkscape:connector-curvature="0" />
      <path
         d="m 113.20067,107.9552 v -6.43371 q 0,-0.1757 0.0927,-0.3049 0.0927,-0.12919 0.21875,-0.12919 0.12606,0 0.21875,0.12919 0.0927,0.1292 0.0927,0.3049 v 5.56554 h 2.20231 q 0.12977,0 0.22246,0.12919 0.0964,0.12403 0.0964,0.30489 0,0.18087 -0.0964,0.31006 -0.0927,0.12403 -0.22246,0.12403 z"
         style="font-style:normal;font-variant:normal;font-weight:normal;font-stretch:normal;font-size:medium;line-height:1.25;font-family:'OCR A Extended';-inkscape-font-specification:'OCR A Extended';letter-spacing:0px;word-spacing:0px;fill:#ff2a2a;fill-opacity:1;stroke:none;stroke-width:0.22411066"
         id="path5006"
         inkscape:connector-curvature="0" />
      <path
         d="m 120.96576,100.705 h 0.32626 q 0.12977,0 0.21875,0.12919 0.0927,0.12402 0.0927,0.30489 v 0.37207 q 0,0.18087 -0.0927,0.31523 -0.089,0.12919 -0.21875,0.12919 h -0.33368 q -0.13347,0 -0.22617,-0.13436 -0.089,-0.13436 -0.0853,-0.29972 l 0.007,-0.38241 q 0,-0.18087 0.089,-0.30489 0.0927,-0.12919 0.22245,-0.12919 z m 1.26799,7.23986 h -1.89829 q -0.12976,0 -0.22245,-0.12402 -0.089,-0.12919 -0.089,-0.31006 0,-0.1757 0.089,-0.30489 0.0927,-0.12919 0.22245,-0.12919 h 0.63771 v -3.24011 h -0.6303 q -0.12976,0 -0.22245,-0.12919 -0.089,-0.12919 -0.089,-0.30489 0,-0.18087 0.089,-0.31006 0.0927,-0.13436 0.22245,-0.13436 h 0.94915 q 0.12977,0 0.21875,0.13436 0.0927,0.12919 0.0927,0.31006 v 3.67419 h 0.62287 q 0.12977,0 0.22246,0.12919 0.0964,0.12402 0.0964,0.30489 0,0.18087 -0.0927,0.31006 -0.0927,0.12402 -0.21875,0.12402 z"
         style="font-style:normal;font-variant:normal;font-weight:normal;font-stretch:normal;font-size:medium;line-height:1.25;font-family:'OCR A Extended';-inkscape-font-specification:'OCR A Extended';letter-spacing:0px;word-spacing:0px;fill:#ff2a2a;fill-opacity:1;stroke:none;stroke-width:0.22411066"
         id="path5008"
         inkscape:connector-curvature="0" />
      <path
         d="m 125.77451,103.97612 -0.84904,0.76997 v 2.77502 q 0,0.1757 -0.0927,0.3049 -0.0927,0.12919 -0.21875,0.12919 -0.12606,0 -0.21875,-0.12919 -0.0927,-0.1292 -0.0927,-0.3049 v -4.1186 q 0,-0.18087 0.089,-0.31006 0.0927,-0.13436 0.22246,-0.13436 0.12606,0 0.21875,0.13436 0.0927,0.12919 0.0927,0.31006 v 0.28939 l 0.56726,-0.4806 q 0.28549,-0.25321 0.64512,-0.25321 h 0.28919 q 0.37077,0 0.64142,0.3669 0.27065,0.36691 0.28549,0.90434 l 0.0853,3.29178 q 0.004,0.1757 -0.089,0.3049 -0.0927,0.12919 -0.22246,0.12919 -0.12235,0 -0.21504,-0.11369 -0.0927,-0.11886 -0.0964,-0.3204 l -0.0927,-3.2401 q -0.0111,-0.45476 -0.34111,-0.45476 h -0.30402 q -0.14089,0 -0.30402,0.14987 z"
         style="font-style:normal;font-variant:normal;font-weight:normal;font-stretch:normal;font-size:medium;line-height:1.25;font-family:'OCR A Extended';-inkscape-font-specification:'OCR A Extended';letter-spacing:0px;word-spacing:0px;fill:#ff2a2a;fill-opacity:1;stroke:none;stroke-width:0.22411066"
         id="path5010"
         inkscape:connector-curvature="0" />
      <path
         d="m 131.07266,107.9552 h -0.62287 q -0.38559,0 -0.66366,-0.38241 -0.27807,-0.3824 -0.27807,-0.91984 v -2.81636 h -0.31885 q -0.12977,0 -0.22246,-0.12402 -0.089,-0.12403 -0.089,-0.31006 0,-0.18087 0.089,-0.30489 0.0927,-0.12919 0.22246,-0.12919 h 0.32626 v -1.06454 q 0,-0.18087 0.089,-0.30489 0.0927,-0.12919 0.22246,-0.12919 0.12236,0 0.21504,0.12919 0.0964,0.12919 0.0964,0.30489 v 1.06454 h 1.25317 q 0.12606,0 0.21875,0.12919 0.0927,0.12919 0.0927,0.30489 0,0.18087 -0.0927,0.31006 -0.0927,0.12402 -0.21875,0.12402 h -1.26059 v 2.81636 q 0,0.1757 0.0927,0.30489 0.0964,0.12919 0.22617,0.12919 h 0.60804 q 0.24841,0 0.32998,-0.37207 0.0816,-0.37724 0.31515,-0.37724 0.13717,0 0.22245,0.1292 0.089,0.12402 0.089,0.31522 0,0.39274 -0.26694,0.78548 -0.26324,0.38758 -0.67479,0.38758 z"
         style="font-style:normal;font-variant:normal;font-weight:normal;font-stretch:normal;font-size:medium;line-height:1.25;font-family:'OCR A Extended';-inkscape-font-specification:'OCR A Extended';letter-spacing:0px;word-spacing:0px;fill:#ff2a2a;fill-opacity:1;stroke:none;stroke-width:0.22411066"
         id="path5012"
         inkscape:connector-curvature="0" />
      <path
         d="m 136.6044,104.6014 v 1.04903 q 0,0.1757 -0.0927,0.30489 -0.0927,0.12919 -0.21875,0.12919 h -2.20231 v 0.25321 q 0,0.22221 0.13718,0.37724 l 0.18167,0.21188 q 0.14831,0.16019 0.28178,0.16019 h 1.60168 q 0.12606,0 0.21875,0.12919 0.0927,0.12403 0.0927,0.30489 0,0.1757 -0.0964,0.3049 -0.0927,0.12919 -0.21505,0.12919 h -1.64246 q -0.16314,0 -0.34481,-0.093 -0.17796,-0.0982 -0.26324,-0.20154 l -0.27807,-0.34106 q -0.12977,-0.1447 -0.21875,-0.40308 -0.0853,-0.25838 -0.0853,-0.47542 v -1.98955 q 0,-0.17052 0.0927,-0.45991 0.0964,-0.28939 0.241,-0.44959 l 0.25954,-0.28422 q 0.25581,-0.28938 0.56726,-0.28938 h 0.87499 q 0.32997,0 0.62287,0.3824 l 0.23359,0.31006 q 0.25211,0.31523 0.25211,0.94051 z m -2.50633,-0.0672 v 0.67179 h 1.89087 v -0.60461 q 0,-0.24288 -0.10752,-0.37207 l -0.18167,-0.22221 q -0.14089,-0.16018 -0.25212,-0.16018 h -0.7823 q -0.1446,0 -0.26324,0.13953 l -0.18168,0.21187 q -0.12234,0.1292 -0.12234,0.3359 z"
         style="font-style:normal;font-variant:normal;font-weight:normal;font-stretch:normal;font-size:medium;line-height:1.25;font-family:'OCR A Extended';-inkscape-font-specification:'OCR A Extended';letter-spacing:0px;word-spacing:0px;fill:#ff2a2a;fill-opacity:1;stroke:none;stroke-width:0.22411066"
         id="path5014"
         inkscape:connector-curvature="0" />
      <path
         d="m 138.05037,107.52111 v -4.1186 q 0,-0.18087 0.089,-0.31006 0.0927,-0.13436 0.22245,-0.13436 0.12977,0 0.21875,0.12919 0.0927,0.12919 0.0927,0.31523 v 0.5426 l 0.50794,-0.60461 q 0.31515,-0.37207 0.61547,-0.37207 h 0.45603 q 0.38559,0 0.65995,0.3824 0.27436,0.38241 0.27436,0.91984 v 0.23254 q 0,0.18604 -0.0927,0.31523 -0.089,0.12919 -0.21875,0.12919 -0.12976,0 -0.22245,-0.12402 -0.089,-0.1292 -0.089,-0.31006 v -0.24288 q 0,-0.18087 -0.0927,-0.30489 -0.089,-0.12919 -0.21875,-0.12919 h -0.40413 q -0.12976,0 -0.28919,0.1912 l -0.88612,1.0697 v 2.42362 q 0,0.18087 -0.0927,0.31006 -0.0927,0.12403 -0.21875,0.12403 -0.12976,0 -0.22245,-0.12403 -0.089,-0.12919 -0.089,-0.31006 z"
         style="font-style:normal;font-variant:normal;font-weight:normal;font-stretch:normal;font-size:medium;line-height:1.25;font-family:'OCR A Extended';-inkscape-font-specification:'OCR A Extended';letter-spacing:0px;word-spacing:0px;fill:#ff2a2a;fill-opacity:1;stroke:none;stroke-width:0.22411066"
         id="path5016"
         inkscape:connector-curvature="0" />
      <path
         d="m 143.26324,107.4591 v 1.92237 q 0,0.18603 -0.0927,0.31522 -0.089,0.12919 -0.21875,0.12919 -0.12977,0 -0.22617,-0.12919 -0.0927,-0.12919 -0.0927,-0.31522 v -6.19084 q 0,-0.1757 0.0927,-0.30489 0.0927,-0.12919 0.22617,-0.12919 0.12606,0 0.21875,0.12919 0.0927,0.12919 0.0927,0.30489 v 0.27906 q 0.45234,-0.7028 0.89353,-0.7028 h 0.1446 q 0.32998,0 0.60805,0.34106 l 0.51907,0.62529 q 0.34109,0.41341 0.34109,1.04902 v 1.35393 q 0,0.64078 -0.36705,1.08003 l -0.50794,0.60979 q -0.25211,0.32039 -0.63771,0.32039 h -0.13718 q -0.36334,0 -0.61546,-0.3514 z m 0.8787,-0.1912 h 0.15943 q 0.11494,0 0.24471,-0.1602 l 0.48569,-0.59428 q 0.12235,-0.13435 0.12235,-0.3669 v -1.40043 q 0,-0.20671 -0.13718,-0.3669 l -0.52277,-0.62528 q -0.089,-0.10852 -0.1928,-0.10852 h -0.18167 q -0.10381,0 -0.27065,0.23771 l -0.46346,0.64078 q -0.12235,0.17053 -0.12235,0.38241 v 1.11104 q 0,0.20154 0.13719,0.39274 l 0.44862,0.62529 q 0.16684,0.23254 0.29289,0.23254 z"
         style="font-style:normal;font-variant:normal;font-weight:normal;font-stretch:normal;font-size:medium;line-height:1.25;font-family:'OCR A Extended';-inkscape-font-specification:'OCR A Extended';letter-spacing:0px;word-spacing:0px;fill:#ff2a2a;fill-opacity:1;stroke:none;stroke-width:0.22411066"
         id="path5018"
         inkscape:connector-curvature="0" />
      <path
         d="m 147.21555,107.52111 v -4.1186 q 0,-0.18087 0.089,-0.31006 0.0927,-0.13436 0.22245,-0.13436 0.12977,0 0.21875,0.12919 0.0927,0.12919 0.0927,0.31523 v 0.5426 l 0.50794,-0.60461 q 0.31515,-0.37207 0.61546,-0.37207 h 0.45604 q 0.38559,0 0.65995,0.3824 0.27437,0.38241 0.27437,0.91984 v 0.23254 q 0,0.18604 -0.0927,0.31523 -0.089,0.12919 -0.21876,0.12919 -0.12976,0 -0.22245,-0.12402 -0.089,-0.1292 -0.089,-0.31006 v -0.24288 q 0,-0.18087 -0.0927,-0.30489 -0.089,-0.12919 -0.21875,-0.12919 h -0.40413 q -0.12977,0 -0.28919,0.1912 l -0.88612,1.0697 v 2.42362 q 0,0.18087 -0.0927,0.31006 -0.0927,0.12403 -0.21875,0.12403 -0.12977,0 -0.22245,-0.12403 -0.089,-0.12919 -0.089,-0.31006 z"
         style="font-style:normal;font-variant:normal;font-weight:normal;font-stretch:normal;font-size:medium;line-height:1.25;font-family:'OCR A Extended';-inkscape-font-specification:'OCR A Extended';letter-spacing:0px;word-spacing:0px;fill:#ff2a2a;fill-opacity:1;stroke:none;stroke-width:0.22411066"
         id="path5020"
         inkscape:connector-curvature="0" />
      <path
         d="m 154.93476,104.6014 v 1.04903 q 0,0.1757 -0.0927,0.30489 -0.0927,0.12919 -0.21875,0.12919 H 152.421 v 0.25321 q 0,0.22221 0.13718,0.37724 l 0.18168,0.21188 q 0.1483,0.16019 0.28177,0.16019 h 1.60168 q 0.12606,0 0.21875,0.12919 0.0927,0.12403 0.0927,0.30489 0,0.1757 -0.0964,0.3049 -0.0927,0.12919 -0.21504,0.12919 h -1.64246 q -0.16313,0 -0.34481,-0.093 -0.17796,-0.0982 -0.26324,-0.20154 l -0.27806,-0.34106 q -0.12977,-0.1447 -0.21875,-0.40308 -0.0853,-0.25838 -0.0853,-0.47542 v -1.98955 q 0,-0.17052 0.0927,-0.45991 0.0964,-0.28939 0.241,-0.44959 l 0.25952,-0.28422 q 0.25583,-0.28938 0.56727,-0.28938 h 0.87499 q 0.32998,0 0.62288,0.3824 l 0.23357,0.31006 q 0.25212,0.31523 0.25212,0.94051 z m -2.50633,-0.0672 v 0.67179 h 1.89087 v -0.60461 q 0,-0.24288 -0.10752,-0.37207 l -0.18167,-0.22221 q -0.14089,-0.16018 -0.25212,-0.16018 h -0.7823 q -0.14459,0 -0.26324,0.13953 l -0.18167,0.21187 q -0.12235,0.1292 -0.12235,0.3359 z"
         style="font-style:normal;font-variant:normal;font-weight:normal;font-stretch:normal;font-size:medium;line-height:1.25;font-family:'OCR A Extended';-inkscape-font-specification:'OCR A Extended';letter-spacing:0px;word-spacing:0px;fill:#ff2a2a;fill-opacity:1;stroke:none;stroke-width:0.22411066"
         id="path5022"
         inkscape:connector-curvature="0" />
      <path
         d="m 158.56821,107.9552 h -0.62288 q -0.38559,0 -0.66366,-0.38241 -0.27807,-0.3824 -0.27807,-0.91984 v -2.81636 h -0.31885 q -0.12977,0 -0.22246,-0.12402 -0.089,-0.12403 -0.089,-0.31006 0,-0.18087 0.089,-0.30489 0.0927,-0.12919 0.22246,-0.12919 h 0.32627 v -1.06454 q 0,-0.18087 0.089,-0.30489 0.0927,-0.12919 0.22246,-0.12919 0.12235,0 0.21504,0.12919 0.0964,0.12919 0.0964,0.30489 v 1.06454 h 1.25316 q 0.12606,0 0.21875,0.12919 0.0927,0.12919 0.0927,0.30489 0,0.18087 -0.0927,0.31006 -0.0927,0.12402 -0.21875,0.12402 h -1.26058 v 2.81636 q 0,0.1757 0.0927,0.30489 0.0964,0.12919 0.22616,0.12919 h 0.60805 q 0.24841,0 0.32997,-0.37207 0.0816,-0.37724 0.31515,-0.37724 0.13719,0 0.22246,0.1292 0.089,0.12402 0.089,0.31522 0,0.39274 -0.26695,0.78548 -0.26324,0.38758 -0.67478,0.38758 z"
         style="font-style:normal;font-variant:normal;font-weight:normal;font-stretch:normal;font-size:medium;line-height:1.25;font-family:'OCR A Extended';-inkscape-font-specification:'OCR A Extended';letter-spacing:0px;word-spacing:0px;fill:#ff2a2a;fill-opacity:1;stroke:none;stroke-width:0.22411066"
         id="path5024"
         inkscape:connector-curvature="0" />
      <path
         d="m 164.09995,104.6014 v 1.04903 q 0,0.1757 -0.0927,0.30489 -0.0927,0.12919 -0.21875,0.12919 h -2.20231 v 0.25321 q 0,0.22221 0.13718,0.37724 l 0.18167,0.21188 q 0.1483,0.16019 0.28177,0.16019 h 1.60169 q 0.12606,0 0.21875,0.12919 0.0927,0.12403 0.0927,0.30489 0,0.1757 -0.0964,0.3049 -0.0927,0.12919 -0.21504,0.12919 h -1.64247 q -0.16313,0 -0.3448,-0.093 -0.17797,-0.0982 -0.26324,-0.20154 l -0.27808,-0.34106 q -0.12976,-0.1447 -0.21874,-0.40308 -0.0853,-0.25838 -0.0853,-0.47542 v -1.98955 q 0,-0.17052 0.0927,-0.45991 0.0964,-0.28939 0.24098,-0.44959 l 0.25954,-0.28422 q 0.25583,-0.28938 0.56726,-0.28938 h 0.87499 q 0.32998,0 0.62288,0.3824 l 0.23358,0.31006 q 0.25212,0.31523 0.25212,0.94051 z m -2.50634,-0.0672 v 0.67179 h 1.89088 v -0.60461 q 0,-0.24288 -0.10752,-0.37207 l -0.18168,-0.22221 q -0.14089,-0.16018 -0.25212,-0.16018 h -0.7823 q -0.1446,0 -0.26324,0.13953 l -0.18167,0.21187 q -0.12235,0.1292 -0.12235,0.3359 z"
         style="font-style:normal;font-variant:normal;font-weight:normal;font-stretch:normal;font-size:medium;line-height:1.25;font-family:'OCR A Extended';-inkscape-font-specification:'OCR A Extended';letter-spacing:0px;word-spacing:0px;fill:#ff2a2a;fill-opacity:1;stroke:none;stroke-width:0.22411066"
         id="path5026"
         inkscape:connector-curvature="0" />
      <path
         d="m 165.54591,107.52111 v -4.1186 q 0,-0.18087 0.089,-0.31006 0.0927,-0.13436 0.22246,-0.13436 0.12976,0 0.21874,0.12919 0.0927,0.12919 0.0927,0.31523 v 0.5426 l 0.50795,-0.60461 q 0.31514,-0.37207 0.61546,-0.37207 h 0.45603 q 0.38559,0 0.65996,0.3824 0.27435,0.38241 0.27435,0.91984 v 0.23254 q 0,0.18604 -0.0927,0.31523 -0.089,0.12919 -0.21874,0.12919 -0.12977,0 -0.22246,-0.12402 -0.089,-0.1292 -0.089,-0.31006 v -0.24288 q 0,-0.18087 -0.0927,-0.30489 -0.089,-0.12919 -0.21875,-0.12919 h -0.40412 q -0.12977,0 -0.2892,0.1912 l -0.88612,1.0697 v 2.42362 q 0,0.18087 -0.0927,0.31006 -0.0927,0.12403 -0.21874,0.12403 -0.12977,0 -0.22246,-0.12403 -0.089,-0.12919 -0.089,-0.31006 z"
         style="font-style:normal;font-variant:normal;font-weight:normal;font-stretch:normal;font-size:medium;line-height:1.25;font-family:'OCR A Extended';-inkscape-font-specification:'OCR A Extended';letter-spacing:0px;word-spacing:0px;fill:#ff2a2a;fill-opacity:1;stroke:none;stroke-width:0.22411066"
         id="path5028"
         inkscape:connector-curvature="0" />
      <path
         d="m 171.74501,105.36104 v -1.67948 q 0,-0.32556 -0.15201,-0.59428 l -0.74522,-1.31258 q -0.0519,-0.0982 -0.0519,-0.24288 0,-0.20154 0.0964,-0.32556 0.10011,-0.12919 0.22617,-0.12919 0.12976,0 0.20762,0.13436 l 0.76006,1.33325 q 0.27436,0.48059 0.27436,1.04903 v 1.85518 q 0,0.57878 -0.27436,1.0542 l -0.76006,1.33325 q -0.0779,0.13436 -0.21133,0.13436 -0.12606,0 -0.22246,-0.12402 -0.0964,-0.12403 -0.0964,-0.33073 0,-0.15503 0.0519,-0.24805 l 0.74522,-1.31258 q 0.15201,-0.25838 0.15201,-0.59428 z"
         style="font-style:normal;font-variant:normal;font-weight:normal;font-stretch:normal;font-size:medium;line-height:1.25;font-family:'OCR A Extended';-inkscape-font-specification:'OCR A Extended';letter-spacing:0px;word-spacing:0px;fill:#ff2a2a;fill-opacity:1;stroke:none;stroke-width:0.22411066"
         id="path5030"
         inkscape:connector-curvature="0" />
    </g>
  </g>
</svg>
