<?xml version="1.0" encoding="UTF-8" standalone="no"?>
<!-- Created with Inkscape (http://www.inkscape.org/) -->

<svg
   xmlns:dc="http://purl.org/dc/elements/1.1/"
   xmlns:cc="http://creativecommons.org/ns#"
   xmlns:rdf="http://www.w3.org/1999/02/22-rdf-syntax-ns#"
   xmlns:svg="http://www.w3.org/2000/svg"
   xmlns="http://www.w3.org/2000/svg"
   xmlns:sodipodi="http://sodipodi.sourceforge.net/DTD/sodipodi-0.dtd"
   xmlns:inkscape="http://www.inkscape.org/namespaces/inkscape"
   width="149.4308mm"
   height="28.347881mm"
   viewBox="0 0 149.4308 28.347881"
   version="1.1"
   id="svg8"
   inkscape:version="0.92.2 (5c3e80d, 2017-08-06)"
   sodipodi:docname="liyad-logo.svg">
  <defs
     id="defs2">
    <filter
       style="color-interpolation-filters:sRGB;"
       inkscape:label="Wax Bump"
       id="filter5073">
      <feGaussianBlur
         in="SourceGraphic"
         stdDeviation="0.53"
         result="blur1"
         id="feGaussianBlur5041" />
      <feFlood
         flood-opacity="1"
         flood-color="rgb(255,255,255)"
         result="flood1"
         id="feFlood5043" />
      <feColorMatrix
         in="flood1"
         values="1 0 0 0 0 0 1 0 0 0 0 0 1 0 0 0 0 0 0 0 "
         result="colormatrix1"
         id="feColorMatrix5045" />
      <feColorMatrix
         in="blur1"
         values="0 0 0 0 0 0 0 0 0 0 0 0 0 0 0 -0.21 -0.72 -0.07 -2.29167 0 "
         result="colormatrix2"
         id="feColorMatrix5047" />
      <feFlood
         flood-color="rgb(225,0,38)"
         flood-opacity="1"
         result="flood2"
         id="feFlood5049" />
      <feComposite
         in="flood2"
         in2="colormatrix2"
         operator="out"
         result="composite1"
         id="feComposite5051" />
      <feGaussianBlur
         in="composite1"
         stdDeviation="0.71"
         result="blur2"
         id="feGaussianBlur5053" />
      <feSpecularLighting
         in="blur2"
         lighting-color="rgb(255,255,255)"
         specularConstant="1.4"
         surfaceScale="5"
         specularExponent="35"
         result="specular"
         id="feSpecularLighting5057">
        <feDistantLight
           elevation="60"
           azimuth="225"
           id="feDistantLight5055" />
      </feSpecularLighting>
      <feBlend
         in="specular"
         in2="blur2"
         specularConstant="1"
         mode="screen"
         result="blend1"
         id="feBlend5059" />
      <feComposite
         in="blend1"
         in2="blur2"
         k2="0"
         operator="atop"
         k1="0.5"
         k3="0.5"
         k4="0"
         result="composite2"
         id="feComposite5061" />
      <feMerge
         result="merge"
         id="feMerge5067">
        <feMergeNode
           in="colormatrix1"
           id="feMergeNode5063" />
        <feMergeNode
           in="composite2"
           id="feMergeNode5065" />
      </feMerge>
      <feBlend
         in2="composite2"
         mode="screen"
         result="blend2"
         id="feBlend5069" />
      <feComposite
         in="blend2"
         in2="SourceGraphic"
         operator="in"
         result="fbSourceGraphic"
         id="feComposite5071" />
      <feColorMatrix
         result="fbSourceGraphicAlpha"
         in="fbSourceGraphic"
         values="0 0 0 -1 0 0 0 0 -1 0 0 0 0 -1 0 0 0 0 1 0"
         id="feColorMatrix5075" />
      <feGaussianBlur
         id="feGaussianBlur5077"
         in="fbSourceGraphic"
         stdDeviation="0.53"
         result="blur1" />
      <feFlood
         id="feFlood5079"
         flood-opacity="1"
         flood-color="rgb(255,255,255)"
         result="flood1" />
      <feColorMatrix
         id="feColorMatrix5081"
         in="flood1"
         values="1 0 0 0 0 0 1 0 0 0 0 0 1 0 0 0 0 0 0 0 "
         result="colormatrix1" />
      <feColorMatrix
         id="feColorMatrix5083"
         in="blur1"
         values="0 0 0 0 0 0 0 0 0 0 0 0 0 0 0 -0.21 -0.72 -0.07 -2.29 0 "
         result="colormatrix2" />
      <feFlood
         id="feFlood5085"
         flood-color="rgb(225,0,38)"
         flood-opacity="1"
         result="flood2" />
      <feComposite
         in2="colormatrix2"
         id="feComposite5087"
         in="flood2"
         operator="out"
         result="composite1" />
      <feGaussianBlur
         id="feGaussianBlur5089"
         in="composite1"
         stdDeviation="0.71"
         result="blur2" />
      <feSpecularLighting
         id="feSpecularLighting5091"
         in="blur2"
         lighting-color="rgb(255,255,255)"
         specularConstant="1.4"
         surfaceScale="5"
         specularExponent="35"
         result="specular">
        <feDistantLight
           id="feDistantLight5093"
           elevation="60"
           azimuth="225" />
      </feSpecularLighting>
      <feBlend
         in2="blur2"
         id="feBlend5095"
         in="specular"
         specularConstant="1"
         mode="screen"
         result="blend1" />
      <feComposite
         in2="blur2"
         id="feComposite5097"
         in="blend1"
         k2="0"
         operator="atop"
         k1="0.5"
         k3="0.5"
         k4="0"
         result="composite2" />
      <feMerge
         id="feMerge5099"
         result="merge">
        <feMergeNode
           id="feMergeNode5101"
           in="colormatrix1" />
        <feMergeNode
           id="feMergeNode5103"
           in="composite2" />
      </feMerge>
      <feBlend
         in2="composite2"
         id="feBlend5105"
         mode="screen"
         result="blend2" />
      <feComposite
         in2="fbSourceGraphic"
         id="feComposite5107"
         in="blend2"
         operator="in"
         result="composite3" />
    </filter>
  </defs>
  <sodipodi:namedview
     id="base"
     pagecolor="#ffffff"
     bordercolor="#666666"
     borderopacity="1.0"
     inkscape:pageopacity="0.0"
     inkscape:pageshadow="2"
     inkscape:zoom="1"
     inkscape:cx="60.14665"
     inkscape:cy="-239.17037"
     inkscape:document-units="mm"
     inkscape:current-layer="layer1"
     showgrid="false"
     inkscape:window-width="1920"
     inkscape:window-height="1027"
     inkscape:window-x="-8"
     inkscape:window-y="-8"
     inkscape:window-maximized="1"
     fit-margin-top="1"
     fit-margin-left="1"
     fit-margin-right="1"
     fit-margin-bottom="1" />
  <metadata
     id="metadata5">
    <rdf:RDF>
      <cc:Work
         rdf:about="">
        <dc:format>image/svg+xml</dc:format>
        <dc:type
           rdf:resource="http://purl.org/dc/dcmitype/StillImage" />
        <dc:title></dc:title>
      </cc:Work>
    </rdf:RDF>
  </metadata>
  <g
     inkscape:label="レイヤー 1"
     inkscape:groupmode="layer"
     id="layer1"
     transform="translate(0.205226,-0.1968705)">
    <g
       id="g1581"
       transform="translate(-1.0583333)"
       style="filter:url(#filter5073)">
      <path
         d="m 44.631786,8.7976361 -2.419824,6.6736749 q -0.817151,2.253638 -0.616349,2.89193 0.25597,0.751057 1.975688,0.688283 1.849506,-0.06751 3.183871,-0.833574 1.334363,-0.766066 2.315007,-2.32266 0.586032,-0.953956 1.445891,-0.985342 0.859861,-0.03139 1.142189,0.646971 0.303826,0.663225 -0.09684,1.768236 -0.653721,1.80291 -2.889652,3.907475 -0.707725,0.671455 -1.148999,0.917119 -0.446545,0.260199 -0.949481,0.278558 l -3.45934,-0.261076 -11.340394,0.413946 q -1.119437,0.04086 -1.489354,-0.175187 -0.543917,-0.310131 -0.301409,-0.978953 0.147617,-0.407108 0.427061,-0.603822 0.300938,-0.211845 1.276371,-0.606128 1.067096,-0.426325 1.585001,-1.148241 0.427072,-0.603849 1.470919,-3.482689 0.485018,-1.337644 1.315955,-3.850035 0.794026,-2.4106122 1.22064,-3.6313458 Q 37.700491,6.9416084 37.642469,6.5276581 37.605943,6.0985767 37.025529,5.9332497 36.076018,5.6379241 35.857797,5.4450293 35.470435,5.10049 35.639138,4.6352226 q 0.384853,-1.0613903 2.548258,-1.6855511 1.84502,-0.5408027 4.651727,-0.6432527 3.147405,-0.1148859 4.599446,0.1190551 1.869401,0.3191367 1.442374,1.4968442 -0.17398,0.479806 -0.534131,0.7225071 -0.34393,0.2421087 -1.524592,0.6725783 -0.706124,0.2696768 -1.084512,0.8717224 -0.378387,0.6020454 -1.105916,2.60851 z"
         style="font-style:normal;font-variant:normal;font-weight:normal;font-stretch:normal;font-size:36.00118256px;line-height:22.50073814px;font-family:'Cooper Black';-inkscape-font-specification:'Cooper Black, Normal';font-variant-ligatures:normal;font-variant-caps:normal;font-variant-numeric:normal;font-feature-settings:normal;text-align:start;letter-spacing:0px;word-spacing:0px;writing-mode:lr-tb;text-anchor:start;fill:#000000;fill-opacity:1;stroke:none;stroke-width:0.78113919px;stroke-linecap:butt;stroke-linejoin:miter;stroke-opacity:1"
         id="path4508"
         inkscape:connector-curvature="0" />
      <path
         d="m 62.956241,8.5745745 -2.441808,8.7061385 q -0.28999,1.033947 -0.238077,1.51346 0.06744,0.479511 0.544241,0.8841 0.389075,0.329665 0.477165,0.56942 0.107827,0.224771 0.007,0.584405 -0.542158,1.933033 -5.621591,1.933033 -2.733884,0 -4.21615,-0.419573 -0.501642,-0.149848 -0.738309,-0.524466 -0.221133,-0.374619 -0.08664,-0.854131 0.113474,-0.404588 0.347384,-0.629359 0.233909,-0.224772 1.071605,-0.719269 0.5782,-0.344649 0.998679,-1.123855 0.420478,-0.779207 0.853363,-2.322636 0.138691,-0.494497 0.439281,-1.843125 0.320312,-1.363612 0.352293,-1.588383 0.07911,-0.614375 -0.605098,-0.944039 -0.849599,-0.404588 -0.626852,-1.19878 0.264774,-0.9440391 1.653269,-1.4085665 1.920464,-0.644344 4.034826,-1.0938864 2.114363,-0.4495424 3.201703,-0.4495424 0.854338,0 0.593766,0.9290548 z m -1.234807,-6.56332 q 1.351409,0 2.004922,0.4944965 0.657717,0.4795124 0.426565,1.303673 -0.323613,1.1538256 -1.708812,1.8281396 -2.193476,1.0639172 -4.88076,1.0639172 -1.133941,0 -1.684201,-0.4195732 Q 55.129509,5.7424569 55.398487,4.783433 55.759925,3.4947441 57.876472,2.7604918 60.02829,2.0112545 61.721434,2.0112545 Z"
         style="font-style:normal;font-variant:normal;font-weight:normal;font-stretch:normal;font-size:36.00118256px;line-height:22.50073814px;font-family:'Cooper Black';-inkscape-font-specification:'Cooper Black, Normal';font-variant-ligatures:normal;font-variant-caps:normal;font-variant-numeric:normal;font-feature-settings:normal;text-align:start;letter-spacing:0px;word-spacing:0px;writing-mode:lr-tb;text-anchor:start;fill:#000000;fill-opacity:1;stroke:none;stroke-width:0.78113919px;stroke-linecap:butt;stroke-linejoin:miter;stroke-opacity:1"
         id="path4510"
         inkscape:connector-curvature="0" />
      <path
         d="m 79.100356,15.02805 -3.449441,5.369015 q -1.281435,1.996767 -2.386002,3.248383 -1.092865,1.266806 -2.303359,2.142184 -2.498581,1.809176 -5.344065,1.755578 -2.301264,-0.04335 -3.431606,-1.23227 -0.873084,-0.914625 -0.515187,-2.300063 0.296323,-1.147082 1.258347,-1.907384 0.981419,-0.774906 2.100954,-0.753819 1.119534,0.02109 1.618972,0.749039 0.241867,0.333888 0.285287,0.58919 0.04342,0.255302 0.0379,1.123439 0.0017,0.658697 0.608124,0.670119 0.482018,0.0091 0.912461,-0.386994 0.430435,-0.396072 0.58437,-0.99196 0.180867,-0.700168 -0.204356,-2.354087 L 67.099644,13.035587 Q 66.816648,11.832683 66.598183,11.529175 66.379718,11.225667 65.480631,10.774611 65.200435,10.649576 65.055713,10.302547 64.930387,9.9409155 65.01505,9.6131773 65.357556,8.287329 68.232892,7.8624591 70.1485,7.5841782 72.496412,7.6284034 q 1.648205,0.031045 2.512035,0.3766494 1.163421,0.456034 0.894034,1.4988361 -0.09623,0.3724296 -0.584682,0.8721971 -0.465227,0.470265 -0.561438,0.842696 -0.09237,0.357532 -0.03692,0.747788 0.07098,0.390546 0.36105,1.324131 0.321481,1.05393 0.772404,1.062424 0.482017,0.0091 1.229892,-0.889984 0.751719,-0.913959 0.971078,-1.763098 0.177024,-0.68527 -0.100101,-1.12461 -0.417688,-0.6815025 -0.294539,-1.1582113 0.196262,-0.759756 1.369055,-1.1867554 1.176638,-0.4418967 2.949236,-0.4085084 3.296406,0.062091 2.903872,1.581603 -0.142403,0.5511957 -0.572984,0.8873861 -0.411194,0.321587 -1.37446,0.602836 -0.815628,0.254092 -1.412634,0.871573 -0.942001,0.985224 -2.420948,3.262695 z"
         style="font-style:normal;font-variant:normal;font-weight:normal;font-stretch:normal;font-size:36.00118256px;line-height:22.50073814px;font-family:'Cooper Black';-inkscape-font-specification:'Cooper Black, Normal';font-variant-ligatures:normal;font-variant-caps:normal;font-variant-numeric:normal;font-feature-settings:normal;text-align:start;letter-spacing:0px;word-spacing:0px;writing-mode:lr-tb;text-anchor:start;fill:#000000;fill-opacity:1;stroke:none;stroke-width:0.78113919px;stroke-linecap:butt;stroke-linejoin:miter;stroke-opacity:1"
         id="path4512"
         inkscape:connector-curvature="0" />
      <path
         d="m 94.520055,7.5256414 q 2.82793,0 4.240354,1.3413956 0.744208,0.7164272 0.766415,1.646258 0.04474,0.914588 -0.622717,2.53036 l -0.970739,2.271226 q -0.976012,2.362686 -0.908108,3.06387 0.04025,0.335349 0.164991,0.426807 0.124743,0.09146 0.613338,0.167675 0.488595,0.07621 0.255615,0.640211 -0.302248,0.73167 -1.263536,1.524313 -0.94503,0.792643 -2.156819,1.326153 -1.495998,0.670697 -2.8287,0.670697 -1.70651,0 -2.244538,-1.097505 -0.177584,-0.396321 -0.470127,-0.396321 -0.32505,0 -1.018802,0.381077 -2.084917,1.112749 -4.148981,1.112749 -2.129073,0 -3.092899,-0.853615 -0.628399,-0.563996 -0.76071,-1.463341 -0.126015,-0.914587 0.28328,-1.905391 0.654873,-1.585285 2.523828,-2.804736 2.922478,-1.920635 7.170669,-1.935877 0.942642,0 1.255696,-0.167675 0.319349,-0.182917 0.583817,-0.823129 0.667467,-1.615772 0.605858,-2.332199 -0.05531,-0.73167 -0.867928,-0.73167 -0.487574,0 -0.990977,0.274376 -0.487151,0.274377 -1.358235,1.006047 -2.246171,1.935878 -3.82266,1.935878 -0.796371,0 -1.117588,-0.442051 -0.321219,-0.442052 -0.02527,-1.158479 0.302249,-0.731669 1.22209,-1.463339 0.936098,-0.731671 2.235447,-1.2804235 3.546194,-1.4633411 6.747932,-1.4633411 z m -4.734794,8.8257726 q -0.715108,0 -1.478126,0.548753 -0.746769,0.548753 -1.061611,1.31091 -0.30225,0.73167 -0.117346,1.188964 0.191199,0.44205 0.808792,0.44205 1.300198,0 2.150273,-2.057823 0.346327,-0.838371 0.270933,-1.127991 -0.05914,-0.289619 -0.572918,-0.304863 z"
         style="font-style:normal;font-variant:normal;font-weight:normal;font-stretch:normal;font-size:36.00118256px;line-height:22.50073814px;font-family:'Cooper Black';-inkscape-font-specification:'Cooper Black, Normal';font-variant-ligatures:normal;font-variant-caps:normal;font-variant-numeric:normal;font-feature-settings:normal;text-align:start;letter-spacing:0px;word-spacing:0px;writing-mode:lr-tb;text-anchor:start;fill:#000000;fill-opacity:1;stroke:none;stroke-width:0.80587322px;stroke-linecap:butt;stroke-linejoin:miter;stroke-opacity:1"
         id="path4514"
         inkscape:connector-curvature="0" />
      <path
         d="m 120.96265,3.7236372 -4.15893,13.5077858 q -0.35531,1.154006 -0.36229,1.479496 0.008,0.325488 0.37887,0.636182 0.44532,0.369874 0.54518,0.650978 0.11538,0.281104 -0.008,0.680567 -0.36442,1.183595 -3.05662,1.804983 -2.42089,0.547413 -4.67324,0.547413 -0.49707,0 -0.60685,-0.147949 -0.0988,-0.133156 0.0186,-0.665772 0.15461,-0.754544 -0.3269,-0.754544 -0.26406,0 -0.95993,0.443849 -1.96249,1.227981 -3.90417,1.227981 -2.40768,0 -3.80998,-1.701419 -0.819631,-1.020851 -1.108657,-2.352397 -0.399035,-1.731008 0.147591,-3.506402 0.642282,-2.086088 2.450626,-4.024226 1.66959,-1.7901874 3.89183,-2.7518592 1.86145,-0.7989271 3.43033,-0.7989271 1.80188,0 2.99408,0.7693376 0.19657,0.1183591 0.33638,0.1183591 0.49707,0 0.88881,-1.2723651 0.16856,-0.547413 -0.0245,-0.8285167 -0.17296,-0.2958998 -0.80818,-0.5030283 -0.88751,-0.2958989 -0.65975,-1.035647 0.33253,-1.0800308 2.77165,-1.6866239 4.29998,-1.0504405 5.65139,-1.0504405 1.33588,0 0.96235,1.2131853 z M 110.2367,11.165495 q -1.00967,0 -1.91426,1.020852 -1.21127,1.361136 -1.89456,3.580376 -0.61952,2.012114 -0.17269,3.032964 0.31591,0.739748 1.24791,0.739748 1.00968,0 1.80178,-1.109621 0.81221,-1.124416 1.57749,-3.609966 0.70151,-2.278423 0.39016,-3.032965 -0.2372,-0.591799 -1.03583,-0.621388 z"
         style="font-style:normal;font-variant:normal;font-weight:normal;font-stretch:normal;font-size:36.00118256px;line-height:22.50073814px;font-family:'Cooper Black';-inkscape-font-specification:'Cooper Black, Normal';font-variant-ligatures:normal;font-variant-caps:normal;font-variant-numeric:normal;font-feature-settings:normal;text-align:start;letter-spacing:0px;word-spacing:0px;writing-mode:lr-tb;text-anchor:start;fill:#000000;fill-opacity:1;stroke:none;stroke-width:0.77617633px;stroke-linecap:butt;stroke-linejoin:miter;stroke-opacity:1"
         id="path4516"
         inkscape:connector-curvature="0" />
    </g>
    <g
       id="g4542"
       transform="translate(-17.462505,-6.3500003)">
      <path
         d="m 21.952884,15.982532 v 5.384819 q 0,1.083632 0.857909,1.917195 l 4.399529,4.267844 q 0.329964,0.283412 0.329964,0.800221 0,0.666851 -0.571938,1.05029 -0.571939,0.383439 -1.341857,0.383439 -0.813913,0 -1.253866,-0.433453 L 19.929101,25.0517 q -1.671822,-1.567099 -1.671822,-3.400938 v -5.984984 q 0,-1.767155 1.671822,-3.384268 l 4.443524,-4.3011863 q 0.46195,-0.4334529 1.231869,-0.4334529 0.769918,0 1.341856,0.3834391 0.593936,0.3834391 0.593936,1.0669614 0,0.5001373 -0.329964,0.8002202 l -4.399529,4.2345015 q -0.857909,0.850235 -0.857909,1.950539 z"
         style="font-style:normal;font-variant:normal;font-weight:normal;font-stretch:normal;font-size:39.2195282px;line-height:24.51220512px;font-family:'OCR A Extended';-inkscape-font-specification:'OCR A Extended, Normal';font-variant-ligatures:normal;font-variant-caps:normal;font-variant-numeric:normal;font-feature-settings:normal;text-align:start;letter-spacing:0px;word-spacing:0px;writing-mode:lr-tb;text-anchor:start;fill:#000000;fill-opacity:1;stroke:none;stroke-width:0.98048818px;stroke-linecap:butt;stroke-linejoin:miter;stroke-opacity:1"
         id="path4523"
         inkscape:connector-curvature="0" />
      <path
         d="m 38.333766,10.380986 v 5.451504 q 0,1.733812 -1.49584,2.800773 1.49584,1.033618 1.49584,2.800772 v 5.468176 h 5.631397 q 0.769917,0 1.297861,0.416782 0.549941,0.40011 0.549941,0.983604 0,0.566824 -0.549941,0.983605 -0.549941,0.416782 -1.297861,0.416782 h -5.631397 q -1.517838,0 -2.61772,-0.850235 -1.077885,-0.850235 -1.077885,-1.950538 v -5.368148 q 0,-0.583495 -0.571939,-1.033619 -0.571938,-0.466795 -1.319859,-0.466795 h -3.695605 q -0.769917,0 -1.319858,-0.40011 -0.527944,-0.400111 -0.527944,-1.000276 0,-0.583494 0.527944,-0.983605 0.549941,-0.416781 1.319858,-0.416781 h 3.695605 q 0.747921,0 1.319859,-0.450125 0.571939,-0.450124 0.571939,-1.05029 v -5.384818 q 0,-1.0836329 1.099882,-1.9171962 1.099883,-0.8502345 2.595723,-0.8502345 h 5.631397 q 0.769917,0 1.297861,0.4167817 0.549941,0.4001103 0.549941,0.9836043 0,0.5834946 -0.549941,1.0002763 -0.527944,0.4001104 -1.297861,0.4001104 z"
         style="font-style:normal;font-variant:normal;font-weight:normal;font-stretch:normal;font-size:39.2195282px;line-height:24.51220512px;font-family:'OCR A Extended';-inkscape-font-specification:'OCR A Extended, Normal';font-variant-ligatures:normal;font-variant-caps:normal;font-variant-numeric:normal;font-feature-settings:normal;text-align:start;letter-spacing:0px;word-spacing:0px;writing-mode:lr-tb;text-anchor:start;fill:#000000;fill-opacity:1;stroke:none;stroke-width:0.98048818px;stroke-linecap:butt;stroke-linejoin:miter;stroke-opacity:1"
         id="path4525"
         inkscape:connector-curvature="0" />
    </g>
    <g
       id="g4538"
       transform="translate(40.745853,-6.3500003)">
      <path
         d="m 87.271264,26.902211 v -5.468176 q 0,-1.71714 1.473842,-2.800772 -1.473842,-1.016948 -1.473842,-2.750759 v -5.501518 h -5.631398 q -0.769918,0 -1.319859,-0.4001104 -0.527944,-0.4167817 -0.527944,-1.0002763 0,-0.5668227 0.527944,-0.9836043 0.549941,-0.4167817 1.319859,-0.4167817 h 5.631398 q 1.49584,0 2.595722,0.8502345 1.099883,0.8502344 1.099883,1.9505382 v 5.384819 q 0,0.583494 0.549941,1.033619 0.571938,0.433453 1.341857,0.433453 h 3.695603 q 0.769918,0 1.297862,0.416781 0.549941,0.400111 0.549941,0.983605 0,0.600165 -0.549941,1.016947 -0.527944,0.416782 -1.297862,0.416782 h -3.695603 q -0.791916,0 -1.341857,0.450124 -0.549941,0.433452 -0.549941,1.016947 v 5.40149 q 0,1.066961 -1.12188,1.917196 -1.099883,0.850235 -2.573725,0.850235 h -5.631398 q -0.769918,0 -1.319859,-0.400111 -0.527944,-0.416781 -0.527944,-1.000276 0,-0.583494 0.527944,-0.983604 0.549941,-0.416782 1.319859,-0.416782 z"
         style="font-style:normal;font-variant:normal;font-weight:normal;font-stretch:normal;font-size:39.2195282px;line-height:24.51220512px;font-family:'OCR A Extended';-inkscape-font-specification:'OCR A Extended, Normal';font-variant-ligatures:normal;font-variant-caps:normal;font-variant-numeric:normal;font-feature-settings:normal;text-align:start;letter-spacing:0px;word-spacing:0px;writing-mode:lr-tb;text-anchor:start;fill:#000000;fill-opacity:1;stroke:none;stroke-width:0.98048818px;stroke-linecap:butt;stroke-linejoin:miter;stroke-opacity:1"
         id="path4527"
         inkscape:connector-curvature="0" />
      <path
         d="m 103.82812,21.367351 v -5.418162 q 0,-1.05029 -0.9019,-1.917196 L 98.504691,9.7974915 q -0.307967,-0.3167541 -0.307967,-0.7835491 0,-0.6501796 0.571939,-1.0502899 0.593936,-0.4167817 1.341857,-0.4167817 0.76992,0 1.23187,0.4334529 l 4.50951,4.3011863 q 1.62783,1.550428 1.62783,3.384268 v 5.984984 q 0,1.867182 -1.62783,3.400938 l -4.50951,4.301187 q -0.46195,0.433453 -1.25387,0.433453 -0.747918,0 -1.319857,-0.40011 -0.571939,-0.400111 -0.571939,-1.066962 0,-0.500137 0.307967,-0.80022 l 4.421529,-4.234502 q 0.9019,-0.833563 0.9019,-1.917195 z"
         style="font-style:normal;font-variant:normal;font-weight:normal;font-stretch:normal;font-size:39.2195282px;line-height:24.51220512px;font-family:'OCR A Extended';-inkscape-font-specification:'OCR A Extended, Normal';font-variant-ligatures:normal;font-variant-caps:normal;font-variant-numeric:normal;font-feature-settings:normal;text-align:start;letter-spacing:0px;word-spacing:0px;writing-mode:lr-tb;text-anchor:start;fill:#000000;fill-opacity:1;stroke:none;stroke-width:0.98048818px;stroke-linecap:butt;stroke-linejoin:miter;stroke-opacity:1"
         id="path4529"
         inkscape:connector-curvature="0" />
    </g>
  </g>
</svg>
