<?xml version="1.0" encoding="UTF-8" standalone="no"?>
<!-- Created with Inkscape (http://www.inkscape.org/) -->

<svg
   xmlns:osb="http://www.openswatchbook.org/uri/2009/osb"
   xmlns:dc="http://purl.org/dc/elements/1.1/"
   xmlns:cc="http://creativecommons.org/ns#"
   xmlns:rdf="http://www.w3.org/1999/02/22-rdf-syntax-ns#"
   xmlns:svg="http://www.w3.org/2000/svg"
   xmlns="http://www.w3.org/2000/svg"
   xmlns:xlink="http://www.w3.org/1999/xlink"
   xmlns:sodipodi="http://sodipodi.sourceforge.net/DTD/sodipodi-0.dtd"
   xmlns:inkscape="http://www.inkscape.org/namespaces/inkscape"
   width="168.67381mm"
   height="65.691887mm"
   viewBox="0 0 168.67382 65.691887"
   version="1.1"
   id="svg8"
   inkscape:version="0.92.2 (5c3e80d, 2017-08-06)"
   sodipodi:docname="redagate-logo2.svg">
  <defs
     id="defs2">
    <linearGradient
       id="linearGradient2337"
       osb:paint="solid">
      <stop
         style="stop-color:#bc0000;stop-opacity:1;"
         offset="0"
         id="stop2335" />
    </linearGradient>
    <linearGradient
       inkscape:collect="always"
       id="linearGradient4491-7">
      <stop
         style="stop-color:#bc0000;stop-opacity:1;"
         offset="0"
         id="stop4500" />
      <stop
         style="stop-color:#bc0000;stop-opacity:0;"
         offset="1"
         id="stop4502" />
    </linearGradient>
    <linearGradient
       inkscape:collect="always"
       xlink:href="#linearGradient4491-7"
       id="linearGradient4510"
       gradientUnits="userSpaceOnUse"
       gradientTransform="translate(-29.558547,-41.240068)"
       x1="30.427084"
       y1="54.641666"
       x2="85.724998"
       y2="54.641666" />
  </defs>
  <sodipodi:namedview
     id="base"
     pagecolor="#ffffff"
     bordercolor="#666666"
     borderopacity="1.0"
     inkscape:pageopacity="0.0"
     inkscape:pageshadow="2"
     inkscape:zoom="1"
     inkscape:cx="144.73522"
     inkscape:cy="-71.663235"
     inkscape:document-units="mm"
     inkscape:current-layer="g4538"
     showgrid="false"
     inkscape:window-width="1920"
     inkscape:window-height="1027"
     inkscape:window-x="-8"
     inkscape:window-y="-8"
     inkscape:window-maximized="1"
     inkscape:snap-text-baseline="false"
     fit-margin-top="0.3"
     fit-margin-left="0.3"
     fit-margin-right="0.3"
     fit-margin-bottom="0.3" />
  <metadata
     id="metadata5">
    <rdf:RDF>
      <cc:Work
         rdf:about="">
        <dc:format>image/svg+xml</dc:format>
        <dc:type
           rdf:resource="http://purl.org/dc/dcmitype/StillImage" />
        <dc:title></dc:title>
      </cc:Work>
    </rdf:RDF>
  </metadata>
  <g
     inkscape:label="レイヤー 1"
     inkscape:groupmode="layer"
     id="layer1"
     transform="translate(-3.9712039,-1.4542481)">
    <g
       id="g4538"
       transform="translate(15.345833,6.6145833)">
      <ellipse
         ry="29.633333"
         rx="27.648958"
         cy="13.401594"
         cx="28.5175"
         id="path4485"
         style="fill:url(#linearGradient4510);fill-opacity:1;fill-rule:nonzero;stroke:none;stroke-width:1.4552083;stroke-miterlimit:4;stroke-dasharray:none;stroke-opacity:1"
         transform="rotate(29.696915)" />
      <ellipse
         ry="29.633333"
         rx="27.648958"
         cy="13.401594"
         cx="28.649786"
         id="path4485-8"
         style="fill:#bc0000;fill-opacity:1;fill-rule:nonzero;stroke:none;stroke-width:1.4552083;stroke-miterlimit:4;stroke-dasharray:none;stroke-opacity:1"
         transform="rotate(29.696915)" />
      <ellipse
         ry="25.131792"
         rx="21.689766"
         cy="-6.2272058"
         cx="30.278944"
         id="path4485-8-8"
         style="fill:#ff7070;fill-opacity:0.74440894;fill-rule:nonzero;stroke:none;stroke-width:1.18695629;stroke-miterlimit:4;stroke-dasharray:none;stroke-opacity:1"
         transform="matrix(0.36771979,0.92993664,-0.78294806,0.62208707,0,0)" />
      <ellipse
         ry="20.04994"
         rx="18.186882"
         cy="-3.9353361"
         cx="36.258324"
         id="path4485-8-8-6"
         style="fill:#ff7070;fill-opacity:0.74440894;fill-rule:nonzero;stroke:none;stroke-width:0.97080326;stroke-miterlimit:4;stroke-dasharray:none;stroke-opacity:1"
         transform="matrix(0.33471005,0.94232117,-0.74902869,0.66253757,0,0)" />
      <ellipse
         ry="11.417182"
         rx="15.270011"
         cy="-16.866838"
         cx="36.972885"
         id="path4485-8-8-66"
         style="fill:#ff9393;fill-opacity:0.74440897;fill-rule:nonzero;stroke:none;stroke-width:0.67126608;stroke-miterlimit:4;stroke-dasharray:none;stroke-opacity:1"
         transform="matrix(-0.08079005,0.99673114,-0.96157114,0.27455589,0,0)" />
      <g
         aria-label="RedAgate"
         transform="matrix(0.43815773,0,0,0.8063323,91.196689,-32.544503)"
         style="font-style:normal;font-weight:normal;font-size:21.7591362px;line-height:13.59945965px;font-family:sans-serif;letter-spacing:0px;word-spacing:0px;fill:#000000;fill-opacity:1;stroke:none;stroke-width:0.54397839px;stroke-linecap:butt;stroke-linejoin:miter;stroke-opacity:1"
         id="text2408">
        <path
           d="m -88.895667,97.039658 q -0.09922,1.860351 -1.736328,2.976562 -1.488281,0.99219 -3.447852,0.99219 h -9.549803 q -1.95957,0 -2.97656,-1.041799 -0.66973,-0.669727 -1.68672,-2.926953 l -4.88653,-10.814844 q 0.91778,-0.173633 4.24161,-1.413867 3.2246,-1.190625 4.04316,-1.637109 4.936132,-2.554883 4.936132,-6.39961 0,-4.415234 -6.250782,-4.415234 h -25.30078 l 3.86953,-6.250781 h 24.97832 q 13.468947,0 13.468947,8.582422 0,7.267773 -14.014647,12.699999 l 4.464842,9.649024 z m -20.761523,-21.480859 -9.05371,25.449611 h -8.92969 l 8.9793,-25.449611 z"
           style="font-style:normal;font-variant:normal;font-weight:bold;font-stretch:normal;font-size:50.79999924px;line-height:33px;font-family:Magneto;-inkscape-font-specification:'Magneto Bold';stroke-width:0.54397839px"
           id="path2418"
           inkscape:connector-curvature="0" />
        <path
           d="m -57.740979,97.039658 q -0.520899,1.909961 -2.38125,3.001362 -1.661914,0.96739 -3.795118,0.96739 h -13.81621 q -12.055078,0 -12.055078,-7.267776 0,-4.663281 4.117578,-7.317382 3.54707,-2.282032 8.433593,-2.282032 h 3.59668 q 3.150195,0 5.531445,0.967383 3.175,1.289844 3.323828,3.919141 0.124024,2.654101 -2.554882,4.415234 h -8.210352 l 2.678906,-5.333008 h -5.233789 l -2.033984,5.97793 q -0.173633,0.520898 -0.173633,0.942578 0,2.00918 3.22461,2.00918 z"
           style="font-style:normal;font-variant:normal;font-weight:bold;font-stretch:normal;font-size:50.79999924px;line-height:33px;font-family:Magneto;-inkscape-font-specification:'Magneto Bold';stroke-width:0.54397839px"
           id="path2420"
           inkscape:connector-curvature="0" />
        <path
           d="m -24.701139,97.039658 q -1.240234,3.968752 -6.077148,3.968752 h -9.450586 q -4.092773,0 -4.018359,-2.57969 -2.728516,3.1998 -7.317383,3.1998 -3.001367,0 -4.861719,-1.686714 -1.934765,-1.736328 -1.934765,-4.712891 0,-5.382617 4.365625,-8.433593 3.844726,-2.654102 9.450585,-2.654102 h 5.159375 l 4.638477,-13.096874 h 9.028906 l -9.227344,25.995312 z M -40.749771,88.10997 h -6.300391 l -1.885156,5.333008 q -0.248047,0.744141 -0.248047,1.339453 0,1.661914 2.108398,2.108399 0.744141,0.148828 3.175,0.148828 z"
           style="font-style:normal;font-variant:normal;font-weight:bold;font-stretch:normal;font-size:50.79999924px;line-height:33px;font-family:Magneto;-inkscape-font-specification:'Magneto Bold';stroke-width:0.54397839px"
           id="path2422"
           inkscape:connector-curvature="0" />
        <path
           d="m 43.95824,84.14122 q -1.265039,3.96875 -6.052343,3.96875 H 23.171912 l -4.663281,12.89844 H 9.6285533 L 14.291834,88.10997 H 6.6767955 q -12.5015623,15.08125 -24.4326165,15.08125 -3.472657,0 -5.853906,-1.28984 -3.001368,-1.63711 -3.001368,-4.812113 0,-2.703711 2.232422,-5.283398 3.59668,-4.142383 10.889258,-6.126758 5.7050779,-1.537891 12.60078091,-1.537891 H 3.9234752 L 18.955116,66.108213 H 30.910975 L 24.511366,84.14122 Z M 20.840272,70.225791 9.9758189,84.14122 H 15.507264 Z M 0.57484245,88.10997 q -9.30175765,0 -13.04726545,2.678906 -3.100586,2.232422 -3.100586,4.737696 0,2.133203 2.232422,2.133203 3.075781,0 7.689453,-3.472656 4.043164,-3.001368 6.22597645,-6.077149 z"
           style="font-style:normal;font-variant:normal;font-weight:bold;font-stretch:normal;font-size:50.79999924px;line-height:33px;font-family:Magneto;-inkscape-font-specification:'Magneto Bold';stroke-width:0.54397839px"
           id="path2424"
           inkscape:connector-curvature="0" />
        <path
           d="m 63.3307,97.039658 q -1.141015,3.968752 -7.366992,3.968752 h -4.415234 q -2.207617,6.00273 -4.39043,8.68164 -3.199804,3.91914 -8.111132,3.91914 -2.778125,0 -4.440039,-1.5627 -1.63711,-1.53789 -1.63711,-4.29121 0,-5.38261 3.150195,-6.94531 -2.33164,-0.5457 -3.844726,-2.158008 -1.761133,-1.835547 -1.761133,-4.440039 0,-1.016992 0.322461,-2.133203 1.066602,-4.043164 4.688086,-6.101953 3.175,-1.835547 7.639844,-1.835547 H 57.352771 L 52.813513,97.039658 Z M 46.984411,88.10997 h -5.283398 l -1.984375,6.300391 q -0.173633,0.570508 -0.173633,1.041797 0,2.108398 3.075781,2.108398 0.198438,0 0.570508,-0.02481 0.396875,-0.0248 0.595313,-0.0248 z m -4.365625,13.56816 q -1.612304,0 -3.026171,1.83555 -1.389063,1.86035 -1.389063,3.6959 0,1.63711 1.413867,2.6293 z"
           style="font-style:normal;font-variant:normal;font-weight:bold;font-stretch:normal;font-size:50.79999924px;line-height:33px;font-family:Magneto;-inkscape-font-specification:'Magneto Bold';stroke-width:0.54397839px"
           id="path2426"
           inkscape:connector-curvature="0" />
        <path
           d="m 95.130313,97.039658 q -1.190625,3.968752 -6.077149,3.968752 h -9.400976 q -4.018359,0 -4.018359,-2.57969 -2.703711,3.07578 -6.647657,3.07578 -2.902148,0 -4.71289,-1.785936 -1.810742,-1.785938 -1.810742,-4.663281 0,-5.18418 3.96875,-8.185547 3.596679,-2.728516 8.904882,-2.728516 H 89.499649 L 84.836367,97.039658 Z M 79.131289,88.10997 h -5.481835 l -1.736329,5.779492 q -0.148828,0.545704 -0.148828,0.992188 0,2.158008 4.216797,2.158008 z"
           style="font-style:normal;font-variant:normal;font-weight:bold;font-stretch:normal;font-size:50.79999924px;line-height:33px;font-family:Magneto;-inkscape-font-specification:'Magneto Bold';stroke-width:0.54397839px"
           id="path2428"
           inkscape:connector-curvature="0" />
        <path
           d="m 117.18168,97.039658 q -1.16582,3.968752 -6.20117,3.968752 H 98.330115 q -3.671094,0 -3.671094,-2.57969 0,-0.644922 0.272852,-1.389062 l 3.150195,-8.929688 h -4.067969 l 1.562695,-3.96875 q 4.340821,-1.116211 6.449216,-2.852539 2.38125,-1.95957 5.08496,-7.09414 h 4.83692 l -3.49746,9.946679 h 6.39961 q -1.53789,3.96875 -6.25078,3.96875 h -1.63711 l -3.10059,8.929688 z"
           style="font-style:normal;font-variant:normal;font-weight:bold;font-stretch:normal;font-size:50.79999924px;line-height:33px;font-family:Magneto;-inkscape-font-specification:'Magneto Bold';stroke-width:0.54397839px"
           id="path2430"
           inkscape:connector-curvature="0" />
        <path
           d="m 148.33637,97.039658 q -0.5209,1.909961 -2.38125,3.001362 -1.66192,0.96739 -3.79512,0.96739 h -13.81621 q -12.05508,0 -12.05508,-7.267776 0,-4.663281 4.11758,-7.317382 3.54707,-2.282032 8.43359,-2.282032 h 3.59668 q 3.1502,0 5.53145,0.967383 3.175,1.289844 3.32383,3.919141 0.12402,2.654101 -2.55489,4.415234 h -8.21035 l 2.67891,-5.333008 h -5.23379 l -2.03399,5.97793 q -0.17363,0.520898 -0.17363,0.942578 0,2.00918 3.22461,2.00918 z"
           style="font-style:normal;font-variant:normal;font-weight:bold;font-stretch:normal;font-size:50.79999924px;line-height:33px;font-family:Magneto;-inkscape-font-specification:'Magneto Bold';stroke-width:0.54397839px"
           id="path2432"
           inkscape:connector-curvature="0" />
      </g>
    </g>
  </g>
</svg>
