<?xml version="1.0" encoding="UTF-8" standalone="no"?>
<!-- Created with Inkscape (http://www.inkscape.org/) -->

<svg
   xmlns:osb="http://www.openswatchbook.org/uri/2009/osb"
   xmlns:dc="http://purl.org/dc/elements/1.1/"
   xmlns:cc="http://creativecommons.org/ns#"
   xmlns:rdf="http://www.w3.org/1999/02/22-rdf-syntax-ns#"
   xmlns:svg="http://www.w3.org/2000/svg"
   xmlns="http://www.w3.org/2000/svg"
   xmlns:sodipodi="http://sodipodi.sourceforge.net/DTD/sodipodi-0.dtd"
   xmlns:inkscape="http://www.inkscape.org/namespaces/inkscape"
   width="112.41623mm"
   height="102.99045mm"
   viewBox="0 0 112.41623 102.99045"
   version="1.1"
   id="svg8"
   inkscape:version="0.92.4 (5da689c313, 2019-01-14)"
   sodipodi:docname="svg-canvas-logo.svg">
  <defs
     id="defs2">
  </defs>
  <sodipodi:namedview
     id="base"
     pagecolor="#ffffff"
     bordercolor="#666666"
     borderopacity="1.0"
     inkscape:pageopacity="0.0"
     inkscape:pageshadow="2"
     inkscape:zoom="1"
     inkscape:cx="-167.24422"
     inkscape:cy="-103.39586"
     inkscape:document-units="mm"
     inkscape:current-layer="layer1"
     showgrid="false"
     inkscape:window-width="3840"
     inkscape:window-height="2068"
     inkscape:window-x="-12"
     inkscape:window-y="-12"
     inkscape:window-maximized="1"
     fit-margin-left="3"
     fit-margin-top="3"
     fit-margin-bottom="3"
     fit-margin-right="3" />
  <metadata
     id="metadata5">
    <rdf:RDF>
      <cc:Work
         rdf:about="">
        <dc:format>image/svg+xml</dc:format>
        <dc:type
           rdf:resource="http://purl.org/dc/dcmitype/StillImage" />
        <dc:title></dc:title>
      </cc:Work>
    </rdf:RDF>
  </metadata>
  <g
     inkscape:label="Layer 1"
     inkscape:groupmode="layer"
     id="layer1"
     transform="translate(-46.869825,-18.486064)">
    <g
       aria-label="&lt;/&gt;"
       transform="scale(0.95180017,1.0506407)"
       style="font-style:normal;font-variant:normal;font-weight:normal;font-stretch:normal;font-size:11.73773861px;line-height:1.25;font-family:Arial;-inkscape-font-specification:Arial;letter-spacing:0px;word-spacing:0px;fill:#000000;fill-opacity:1;stroke:none;stroke-width:0.48907241"
       id="text817">
      <path
         d="m 88.513908,82.623773 -2.154975,2.888585 -33.8377,-21.595606 v -1.513067 l 33.8377,-21.595605 2.246676,2.751032 -30.444759,19.165526 v 1.008712 z"
         style="font-style:normal;font-variant:normal;font-weight:normal;font-stretch:normal;font-size:93.90190887px;font-family:Candara;-inkscape-font-specification:Candara;stroke-width:0.48907241"
         id="path3133" />
      <path
         d="m 101.26036,100.91814 h -4.309951 q 0,-2.842734 8.665751,-38.010099 8.66575,-35.167366 8.89501,-42.457602 h 4.40165 q 0,2.017424 -2.88859,14.167818 -2.88858,12.104542 -4.906,19.899134 -1.97158,7.794593 -5.91472,24.988546 -3.94315,17.193953 -3.94315,21.412203 z"
         style="font-style:normal;font-variant:normal;font-weight:normal;font-stretch:normal;font-size:93.90190887px;font-family:Candara;-inkscape-font-specification:Candara;stroke-width:0.48907241"
         id="path3135" />
      <path
         d="M 126.75326,82.623773 157.01462,63.73335 v -1.008712 l -30.53646,-19.165526 2.33837,-2.751032 33.8377,21.595605 v 1.513067 l -33.8377,21.595606 z"
         style="font-style:normal;font-variant:normal;font-weight:normal;font-stretch:normal;font-size:93.90190887px;font-family:Candara;-inkscape-font-specification:Candara;stroke-width:0.48907241"
         id="path3137" />
    </g>
    <g
       aria-label="Canvas2D"
       style="font-style:normal;font-variant:normal;font-weight:normal;font-stretch:normal;font-size:25.39999962px;line-height:1.25;font-family:'Courier New';-inkscape-font-specification:'Courier New';letter-spacing:0px;word-spacing:0px;fill:#000000;fill-opacity:1;stroke:none;stroke-width:0.26458332"
       id="text821">
      <path
         d="m 49.869825,110.41499 q 0,-2.50528 1.141016,-4.48965 1.141015,-1.98438 3.100585,-3.07578 1.971973,-1.09141 4.216797,-1.09141 0.682129,0 1.141016,0.0868 0.471289,0.0744 1.116211,0.27285 l -0.248047,1.0418 q -1.42627,-0.38448 -2.294434,-0.38448 -3.150195,0 -5.13457,2.02159 -1.971972,2.00918 -1.971972,5.2958 0,3.7331 2.009179,5.61826 2.021582,1.87275 5.680274,1.87275 1.215429,0 2.976562,-0.5333 l -0.07441,0.91777 q -1.364258,0.5085 -3.199805,0.5085 -3.906738,0 -6.188769,-2.1332 -2.269629,-2.13321 -2.269629,-5.92832 z"
         style="font-style:normal;font-variant:normal;font-weight:normal;font-stretch:normal;font-family:Candara;-inkscape-font-specification:Candara;stroke-width:0.26458332"
         id="path3116" />
      <path
         d="m 71.635938,116.87661 q -1.649512,1.5751 -4.167187,1.5751 -1.885157,0 -2.902149,-0.83096 -1.016992,-0.84336 -1.016992,-2.45567 0,-2.02158 1.736328,-3.11298 1.748731,-1.09141 6.35,-1.12862 0.04961,-0.44648 0.04961,-0.88056 0,-1.69912 -0.967382,-2.35645 -0.967383,-0.66972 -2.641699,-0.66972 -1.984375,0 -3.993555,0.50849 l 0.16123,-1.0666 q 1.897559,-0.5085 3.881934,-0.5085 2.145605,0 3.348633,0.89297 1.203027,0.88057 1.203027,2.93936 0,0.66972 -0.07441,1.95957 -0.06201,1.27744 -0.06201,2.54248 0,1.82314 0.285254,3.85713 l -0.992187,0.0496 q -0.124024,-0.76895 -0.124024,-1.31465 z m 0.04961,-5.08496 q -3.274218,0 -5.146972,0.75654 -1.872754,0.74414 -1.872754,2.72852 0,2.20761 2.926953,2.20761 1.339453,0 2.368848,-0.39687 1.041797,-0.39688 1.723925,-1.20303 z"
         style="font-style:normal;font-variant:normal;font-weight:normal;font-stretch:normal;font-family:Candara;-inkscape-font-specification:Candara;stroke-width:0.26458332"
         id="path3118" />
      <path
         d="m 78.109961,107.77329 h 0.02481 q 2.033984,-1.82315 4.043164,-1.82315 2.145605,0 3.224609,0.91778 1.091407,0.91777 1.091407,3.1998 l -0.0124,0.89297 q 0,0.21084 -0.0124,0.63252 0,1.51309 0.0124,2.44326 l 0.0124,4.10518 h -1.240235 q 0.297656,-3.78272 0.297656,-7.85069 0,-1.90996 -1.029394,-2.61689 -1.016992,-0.70693 -2.629297,-0.70693 -2.071191,0 -3.782715,1.5999 -0.0248,0.90537 -0.0248,3.10058 0,1.61231 0.0124,3.05098 l 0.02481,2.6293 q 0,0.26045 0.0124,0.79375 h -1.190625 q 0.223242,-4.57647 0.223242,-6.10196 0,-2.48046 -0.496094,-5.68027 l 1.21543,-0.26045 z"
         style="font-style:normal;font-variant:normal;font-weight:normal;font-stretch:normal;font-family:Candara;-inkscape-font-specification:Candara;stroke-width:0.26458332"
         id="path3120" />
      <path
         d="m 94.530665,118.14165 h -0.595312 q 0,-0.45889 -0.595312,-1.97198 -0.582911,-1.51308 -1.810743,-4.12998 l -0.471289,-1.01699 q -0.979785,-2.09599 -1.463476,-3.1998 -0.483692,-1.10381 -0.483692,-1.46348 h 1.153418 q 0,0.63252 2.021582,5.03535 2.033985,4.39043 2.033985,4.99815 h 0.07441 q 0,-0.54571 0.917773,-2.6541 0.917774,-2.12081 2.046387,-4.44004 1.128613,-2.33164 1.128613,-2.93936 h 1.190625 q 0,0.37207 -2.579687,5.68027 -2.567286,5.30821 -2.567286,6.10196 z"
         style="font-style:normal;font-variant:normal;font-weight:normal;font-stretch:normal;font-family:Candara;-inkscape-font-specification:Candara;stroke-width:0.26458332"
         id="path3122" />
      <path
         d="m 109.68633,116.87661 q -1.64951,1.5751 -4.16719,1.5751 -1.88515,0 -2.90215,-0.83096 -1.01699,-0.84336 -1.01699,-2.45567 0,-2.02158 1.73633,-3.11298 1.74873,-1.09141 6.35,-1.12862 0.0496,-0.44648 0.0496,-0.88056 0,-1.69912 -0.96738,-2.35645 -0.96739,-0.66972 -2.6417,-0.66972 -1.98438,0 -3.99356,0.50849 l 0.16123,-1.0666 q 1.89756,-0.5085 3.88194,-0.5085 2.1456,0 3.34863,0.89297 1.20303,0.88057 1.20303,2.93936 0,0.66972 -0.0744,1.95957 -0.062,1.27744 -0.062,2.54248 0,1.82314 0.28526,3.85713 l -0.99219,0.0496 q -0.12403,-0.76895 -0.12403,-1.31465 z m 0.0496,-5.08496 q -3.27422,0 -5.14697,0.75654 -1.87276,0.74414 -1.87276,2.72852 0,2.20761 2.92696,2.20761 1.33945,0 2.36884,-0.39687 1.0418,-0.39688 1.72393,-1.20303 z"
         style="font-style:normal;font-variant:normal;font-weight:normal;font-stretch:normal;font-family:Candara;-inkscape-font-specification:Candara;stroke-width:0.26458332"
         id="path3124" />
      <path
         d="m 114.23799,117.73237 0.27285,-1.16582 q 0.83096,0.38447 1.81075,0.55811 0.99218,0.17363 2.25722,0.17363 1.19063,0 1.87276,-0.57051 0.69453,-0.57051 0.69453,-1.47588 0,-0.74414 -0.35967,-1.31465 -0.35967,-0.5705 -1.64951,-1.079 -1.28985,-0.5209 -2.39365,-1.0294 -1.10381,-0.50849 -1.63711,-1.21543 -0.5209,-0.71933 -0.5209,-1.6371 0,-1.33946 1.0666,-2.12081 1.0666,-0.78134 2.69131,-0.78134 1.77353,0 3.33623,0.45888 l -0.28526,1.0418 q -1.22783,-0.5085 -3.175,-0.5085 -1.21543,0 -1.93476,0.54571 -0.70693,0.5457 -0.70693,1.33945 0,0.90537 0.75654,1.41387 0.75654,0.50849 2.54248,1.24023 1.78594,0.71934 2.51767,1.45108 0.74414,0.73173 0.74414,2.03398 0,1.55029 -1.04179,2.40606 -1.0418,0.84335 -2.87735,0.84335 -2.07119,0 -3.98115,-0.60771 z"
         style="font-style:normal;font-variant:normal;font-weight:normal;font-stretch:normal;font-family:Candara;-inkscape-font-specification:Candara;stroke-width:0.26458332"
         id="path3126" />
      <path
         d="m 124.76758,118.14165 0.26045,-1.01699 0.5085,-0.38448 q 1.37666,-1.02939 2.62929,-2.1332 1.26504,-1.10381 2.30684,-2.6293 1.0542,-1.52549 1.0542,-3.05097 0,-1.40147 -0.97979,-2.18282 -0.96738,-0.79375 -2.75332,-0.79375 -0.69453,0 -1.5999,0.0868 -0.89297,0.0744 -1.24023,0.18604 l 0.27285,-1.06661 q 0.37207,-0.0992 1.079,-0.16123 0.71934,-0.062 1.48828,-0.062 2.18282,0 3.49746,1.00459 1.32706,0.99219 1.32706,2.67891 0,2.45566 -1.81075,4.50205 -1.79834,2.03398 -4.71289,4.17959 v 0.0248 q 4.30362,0 7.46621,-0.14883 l -0.22324,0.96739 z"
         style="font-style:normal;font-variant:normal;font-weight:normal;font-stretch:normal;font-family:Candara;-inkscape-font-specification:Candara;stroke-width:0.26458332"
         id="path3128" />
      <path
         d="m 139.94805,101.94419 q 0.71934,-0.0372 1.36426,-0.0372 3.93154,0 6.10195,1.97197 2.18281,1.95957 2.18281,5.87871 0,3.89434 -2.30683,6.23838 -2.29444,2.34404 -6.15157,2.34404 -0.35966,0 -1.38906,-0.0744 l -2.1456,-0.12402 q 0.21084,-4.48965 0.21084,-8.50801 0,-3.75791 -0.21084,-7.65225 h 0.69453 q 0.5457,0 0.96738,-0.0124 z m 8.58242,8.09873 q 0,-3.84473 -1.89756,-5.53145 -1.89756,-1.68672 -5.10976,-1.68672 -1.81075,0 -2.77813,0.0992 0,2.17041 0.0124,3.27422 l 0.0124,3.43545 -0.0124,3.55947 q 0,2.43086 0.0744,4.12998 0.50849,0.0744 1.00459,0.11162 0.50849,0.0248 1.25263,0.0248 3.54707,0 5.49424,-1.94717 1.94717,-1.95957 1.94717,-5.46943 z"
         style="font-style:normal;font-variant:normal;font-weight:normal;font-stretch:normal;font-family:Candara;-inkscape-font-specification:Candara;stroke-width:0.26458332"
         id="path3130" />
    </g>
    <g
       aria-label="SVG"
       style="font-style:normal;font-variant:normal;font-weight:normal;font-stretch:normal;font-size:25.39999962px;line-height:1.25;font-family:'Courier New';-inkscape-font-specification:'Courier New';letter-spacing:0px;word-spacing:0px;fill:#000000;fill-opacity:1;stroke:none;stroke-width:0.26458332"
       id="text825">
      <path
         d="m 118.79377,25.851647 q 0,0.905371 0.28525,1.438671 0.29766,0.533301 1.0666,1.091407 0.76895,0.545703 2.14561,1.066601 1.37666,0.508496 2.41846,1.054199 1.04179,0.533301 1.6123,1.153418 0.58291,0.607715 0.81856,1.289844 0.23564,0.682129 0.23564,1.562695 0,2.170411 -1.50068,3.261817 -1.50069,1.091406 -4.36563,1.091406 -2.24482,0 -3.88193,-0.483691 l 0.24804,-1.165821 q 1.0542,0.396875 1.97198,0.558106 0.93017,0.148828 1.97197,0.148828 2.33164,0 3.43545,-0.768945 1.10381,-0.768946 1.10381,-2.530078 0,-1.376661 -0.85576,-2.257227 -0.85577,-0.892969 -3.32383,-1.785937 -2.46807,-0.905372 -3.43545,-1.885157 -0.96738,-0.992187 -0.96738,-2.505273 0,-1.835547 1.36425,-2.951758 1.37666,-1.116211 3.36104,-1.116211 2.22002,0 3.78271,0.434082 l -0.24804,1.041797 q -1.15342,-0.272851 -1.95957,-0.384473 -0.79375,-0.124023 -1.64952,-0.124023 -1.73632,0 -2.6913,0.79375 -0.94258,0.781348 -0.94258,1.971973 z"
         style="font-style:normal;font-variant:normal;font-weight:normal;font-stretch:normal;font-family:Candara;-inkscape-font-specification:Candara;stroke-width:0.26458332"
         id="path3109" />
      <path
         d="m 138.86076,30.403307 q -1.14102,2.554882 -2.00918,5.035351 -0.86816,2.468067 -0.86816,3.063379 h -1.09141 q 0,-1.054199 -1.45107,-4.886523 -1.43868,-3.832324 -2.95176,-7.242969 -1.51309,-3.410644 -1.51309,-4.030762 h 1.30225 q 0,0.905371 2.53008,7.044532 2.53007,6.126757 2.6789,7.664648 h 0.0496 q 0,-0.595313 0.55811,-2.133203 0.5581,-1.537891 2.18281,-5.357813 l 0.80615,-1.897558 q 1.17822,-2.778125 1.5999,-3.869531 0.43409,-1.091407 0.43409,-1.451075 h 1.16582 q 0,0.334864 -0.40928,1.327051 -0.40928,0.979785 -1.52549,3.447852 z"
         style="font-style:normal;font-variant:normal;font-weight:normal;font-stretch:normal;font-family:Candara;-inkscape-font-specification:Candara;stroke-width:0.26458332"
         id="path3111" />
      <path
         d="m 143.89611,30.676158 q 0,-3.770312 2.51768,-6.163964 2.53008,-2.393653 6.3748,-2.393653 1.31465,0 2.57969,0.384473 l -0.22324,1.141015 q -2.096,-0.508496 -3.10059,-0.508496 -3.1998,0 -5.14697,2.046387 -1.93477,2.033984 -1.93477,5.109766 0,3.832324 1.98438,5.754687 1.98437,1.922363 5.75469,1.922363 0.73173,0 1.25263,-0.06201 0.5209,-0.06201 1.26504,-0.223243 -0.0992,-1.004589 -0.0992,-3.249414 0,-0.644922 -0.062,-1.637109 l -0.0372,-1.029395 h 1.26504 q -0.0496,0.520899 -0.11162,2.505274 -0.0496,1.971973 -0.0496,3.237012 0,0.595312 0.0124,0.768945 -1.27745,0.558105 -3.58428,0.558105 -4.10518,0 -6.38721,-2.145605 -2.26963,-2.158008 -2.26963,-6.015137 z"
         style="font-style:normal;font-variant:normal;font-weight:normal;font-stretch:normal;font-family:Candara;-inkscape-font-specification:Candara;stroke-width:0.26458332"
         id="path3113" />
    </g>
  </g>
</svg>
