<?xml version="1.0" encoding="UTF-8" standalone="no"?>
<!-- Created with Inkscape (http://www.inkscape.org/) -->

<svg
   xmlns:dc="http://purl.org/dc/elements/1.1/"
   xmlns:cc="http://creativecommons.org/ns#"
   xmlns:rdf="http://www.w3.org/1999/02/22-rdf-syntax-ns#"
   xmlns:svg="http://www.w3.org/2000/svg"
   xmlns="http://www.w3.org/2000/svg"
   xmlns:sodipodi="http://sodipodi.sourceforge.net/DTD/sodipodi-0.dtd"
   xmlns:inkscape="http://www.inkscape.org/namespaces/inkscape"
   width="160"
   height="160"
   viewBox="0 0 42.333332 42.333335"
   version="1.1"
   id="svg8"
   inkscape:version="0.92.2 (5c3e80d, 2017-08-06)"
   sodipodi:docname="twitter.svg">
  <defs
     id="defs2" />
  <sodipodi:namedview
     id="base"
     pagecolor="#ffffff"
     bordercolor="#666666"
     borderopacity="1.0"
     inkscape:pageopacity="0.0"
     inkscape:pageshadow="2"
     inkscape:zoom="3.959798"
     inkscape:cx="13.355727"
     inkscape:cy="78.289985"
     inkscape:document-units="px"
     inkscape:current-layer="layer1"
     showgrid="false"
     units="px"
     inkscape:window-width="1920"
     inkscape:window-height="1027"
     inkscape:window-x="-8"
     inkscape:window-y="-8"
     inkscape:window-maximized="1" />
  <metadata
     id="metadata5">
    <rdf:RDF>
      <cc:Work
         rdf:about="">
        <dc:format>image/svg+xml</dc:format>
        <dc:type
           rdf:resource="http://purl.org/dc/dcmitype/StillImage" />
        <dc:title />
      </cc:Work>
    </rdf:RDF>
  </metadata>
  <g
     inkscape:label="レイヤー 1"
     inkscape:groupmode="layer"
     id="layer1"
     transform="translate(0,-254.66665)">
    <path
       style="fill:#000000;fill-opacity:1;fill-rule:nonzero;stroke:none;stroke-width:5.5;stroke-miterlimit:4;stroke-dasharray:none;stroke-opacity:1"
       d="M 79.802734 4.4355469 A 76.771589 76.771589 0 0 0 3.03125 81.208984 A 76.771589 76.771589 0 0 0 79.802734 157.98047 A 76.771589 76.771589 0 0 0 156.57422 81.208984 A 76.771589 76.771589 0 0 0 79.802734 4.4355469 z M 108.23633 30.896484 A 28.169616 26.69369 20.460997 0 1 113.00195 31.355469 A 28.169616 26.69369 20.460997 0 1 129.65234 40.570312 L 141.36328 39.351562 L 135.51367 50.710938 A 28.169616 26.69369 20.460997 0 1 136.47852 62.738281 A 28.169616 26.69369 20.460997 0 1 130.72852 75.179688 C 122.39145 126.12213 112.95733 131.80765 91.591797 133.41602 C 68.468825 135.15671 22.335938 124.18359 22.335938 124.18359 C 22.335937 124.18359 38.752618 119.07552 56.388672 112.37305 C 48.35302 109.09637 41.310858 105.13468 37.208984 100.43359 C 22.381149 83.43967 36.777344 33.287109 36.777344 33.287109 C 36.777344 33.287109 39.653899 41.613834 66.269531 59.863281 C 72.026171 63.810449 77.331371 65.178302 82.111328 64.902344 A 28.169616 26.69369 20.460997 0 1 81.125 52.804688 A 28.169616 26.69369 20.460997 0 1 108.23633 30.896484 z "
       transform="matrix(0.26458333,0,0,0.26458333,0,254.66665)"
       id="path821" />
  </g>
</svg>
