<?xml version="1.0" encoding="UTF-8" standalone="no"?>
<!-- Created with Inkscape (http://www.inkscape.org/) -->

<svg
   xmlns:dc="http://purl.org/dc/elements/1.1/"
   xmlns:cc="http://creativecommons.org/ns#"
   xmlns:rdf="http://www.w3.org/1999/02/22-rdf-syntax-ns#"
   xmlns:svg="http://www.w3.org/2000/svg"
   xmlns="http://www.w3.org/2000/svg"
   xmlns:sodipodi="http://sodipodi.sourceforge.net/DTD/sodipodi-0.dtd"
   xmlns:inkscape="http://www.inkscape.org/namespaces/inkscape"
   width="160"
   height="160"
   viewBox="0 0 42.333332 42.333335"
   version="1.1"
   id="svg8"
   inkscape:version="0.92.2 (5c3e80d, 2017-08-06)"
   sodipodi:docname="npm.svg">
  <defs
     id="defs2" />
  <sodipodi:namedview
     id="base"
     pagecolor="#ffffff"
     bordercolor="#666666"
     borderopacity="1.0"
     inkscape:pageopacity="0.0"
     inkscape:pageshadow="2"
     inkscape:zoom="2.8"
     inkscape:cx="31.056857"
     inkscape:cy="59.948796"
     inkscape:document-units="px"
     inkscape:current-layer="layer1"
     showgrid="false"
     units="px"
     inkscape:window-width="1920"
     inkscape:window-height="1027"
     inkscape:window-x="-8"
     inkscape:window-y="-8"
     inkscape:window-maximized="1" />
  <metadata
     id="metadata5">
    <rdf:RDF>
      <cc:Work
         rdf:about="">
        <dc:format>image/svg+xml</dc:format>
        <dc:type
           rdf:resource="http://purl.org/dc/dcmitype/StillImage" />
        <dc:title />
      </cc:Work>
    </rdf:RDF>
  </metadata>
  <g
     inkscape:label="レイヤー 1"
     inkscape:groupmode="layer"
     id="layer1"
     transform="translate(0,-254.66665)">
    <path
       style="fill:#000000;fill-opacity:1;fill-rule:nonzero;stroke:none;stroke-width:5.5;stroke-miterlimit:4;stroke-dasharray:none;stroke-opacity:1"
       d="M 79.802734 4.4355469 A 76.771589 76.771589 0 0 0 3.03125 81.208984 A 76.771589 76.771589 0 0 0 79.802734 157.98047 A 76.771589 76.771589 0 0 0 156.57422 81.208984 A 76.771589 76.771589 0 0 0 79.802734 4.4355469 z M 12.121094 55.955078 L 27.75 55.955078 L 29.09375 55.955078 L 43.041016 55.955078 L 44.720703 55.955078 L 54.582031 55.955078 L 54.582031 106.23633 L 43.041016 106.23633 L 43.041016 72.199219 L 29.09375 72.199219 L 29.09375 106.23633 L 12.121094 106.23633 L 12.121094 55.955078 z M 56.261719 55.955078 L 68.193359 55.955078 L 73.234375 55.955078 L 80.125 55.955078 L 85.166016 55.955078 L 91.666016 55.955078 L 91.666016 106.23633 L 84.945312 106.23633 L 84.945312 106.23828 L 73.234375 106.23828 L 73.234375 120.60352 L 56.261719 120.60352 L 56.261719 55.955078 z M 93.666016 55.955078 L 109.29297 55.955078 L 110.63867 55.955078 L 118.58594 55.955078 L 124.83398 55.955078 L 126.26562 55.955078 L 130.12695 55.955078 L 136.12695 55.955078 L 141.80664 55.955078 L 147.66602 55.955078 L 147.66602 106.23633 L 136.12695 106.23633 L 136.12695 72.199219 L 130.12695 72.199219 L 130.12695 106.23633 L 118.58594 106.23633 L 118.58594 72.199219 L 110.63867 72.199219 L 110.63867 106.23633 L 93.666016 106.23633 L 93.666016 55.955078 z M 73.234375 72.199219 L 73.234375 89.992188 L 80.125 89.992188 L 80.125 72.199219 L 73.234375 72.199219 z "
       transform="matrix(0.26458333,0,0,0.26458333,0,254.66665)"
       id="path821" />
  </g>
</svg>
